<svg xmlns="http://www.w3.org/2000/svg" width="738" height="721" viewBox="0 0 738 721"><path fill="#fa6608" d="M404.62.81a57,57,0,1,1-39.21,26.55A57,57,0,0,1,404.62.81Z"/><path fill="#fa6608" d="M198.62,3.94c44.08,29,93.65,48.79,144.6,61.88,1.65,8.94,3.67,18.05,8.34,26,5,8.31,11.06,16.27,19.09,21.91,6.43,4.93,13.57,9.09,21.45,11.18,6.31,1.57,12.63,3.37,19.16,3.61,9.16.58,18.16-1.73,26.89-4.23,19-6.49,34.63-21.73,42.21-40.26,49.07.64,98.53-4.65,145.58-19,10.92-3.17,21.46-7.44,32.11-11.38L655.8,55.9q-133.9,91.56-267.93,183Q293.17,121.48,198.62,3.94Z"/><path fill="#fbd307" d="M197.82,6.84q47.58,138.4,95.25,276.78-142,55.53-284,111.17c-3,1.13-5.86,2.69-9.11,2.74,41-32.46,75.94-72.17,104.91-115.61,1.11-1.48,1.84-3.41,3.37-4.48,11.47-1.18,23.17-3.29,33.5-8.65,10.14-5.78,19.55-13.26,25.94-23.17,7.6-9.76,10.72-22,12.75-34a64.42,64.42,0,0,0-2.09-25.5,61.79,61.79,0,0,0-11.34-25C185.52,111.86,197.28,59.65,197.82,6.84Z"/><path fill="#f40101" d="M616.82,111.51c13.33-18.35,26.44-36.86,39.91-55.11C639.38,107.55,634.41,162.21,636.55,216c-11.09,5.29-21.26,13.06-28.23,23.28a59.07,59.07,0,0,0-10,19.85c-1.77,6.92-3.64,13.92-3.7,21.12-.2,8.11,1.91,16,4,23.8,2.56,9,7.9,16.9,13.74,24.11,5,6,11.48,10.68,18.07,14.87,8.54,5.35,18.6,7.37,28.36,9.25,14.27,49.92,35,98.31,64,141.46,4.75,7.28,10.23,14,15.16,21.19C718.5,500.23,699.54,485,680.3,470.09q-103.08-80.47-206.14-161Q545.51,210.31,616.82,111.51Z"/><path fill="#fbd307" d="M96.68,148A57,57,0,1,1,55.84,180,57.32,57.32,0,0,1,96.68,148Z"/><path fill="#f40101" d="M661.37,224.31a56.84,56.84,0,0,1,61.74,56.87A57,57,0,0,1,632.41,327a57,57,0,0,1,29-102.64Z"/><path fill="#379ab5" d="M37.3,398.58q132-3.59,264-7.05a2.15,2.15,0,0,1,2.42,2.51c8.87,108.09,18,216.16,26.79,324.26-19.71-56-50.9-107.49-88.43-153.32,6.78-9.35,9.68-20.77,11.48-32A59.52,59.52,0,0,0,252,510.05c-4.42-23.34-22.25-43.21-44.37-51.37-10.13-3.09-20.77-5.69-31.43-4.31-12.55,1.73-25.28,5.26-35.38,13.24-29.88-22-61.91-41.45-96.3-55.63-11.8-4.79-23.77-9.3-36.15-12.39C18,398.7,27.64,398.89,37.3,398.58Z"/><path fill="#22c510" d="M331.53,721.11q42.06-155.87,84.22-311.72Q534.37,448.24,653,487.13c28.21,9.36,56.57,18.3,84.69,27.93-56.8-4.67-113.6,8.24-166.38,28.53-3.84-5.56-7.78-11.15-13-15.54-7.69-6.5-16.35-12.21-26.17-14.85-7.19-1.82-14.48-3.73-22-3.64s-14.62,1.89-21.74,3.73c-9.62,2.59-18,8.21-25.64,14.49-5.65,4.77-10,10.87-14,17-4.52,7-6.79,15.19-8.5,23.3-3.61,14.74-.19,30.21,5.48,44C402.82,642.73,363.64,679.09,331.53,721.11Z"/><path fill="#379ab5" d="M172.37,469.44a57,57,0,1,1-41.74,32.3A57.53,57.53,0,0,1,172.37,469.44Z"/><path fill="#22c510" d="M501.66,524.86A57,57,0,0,1,520,637.38c-11,1.65-22.6.57-32.79-4.12a57,57,0,0,1,14.41-108.4Z"/></svg>