<?xml version="1.0" encoding="UTF-8" standalone="no"?><!DOCTYPE svg PUBLIC "-//W3C//DTD SVG 1.1//EN" "http://www.w3.org/Graphics/SVG/1.1/DTD/svg11.dtd"><svg width="100%" height="100%" viewBox="0 0 135 93" version="1.1" xmlns="http://www.w3.org/2000/svg" xmlns:xlink="http://www.w3.org/1999/xlink" xml:space="preserve" xmlns:serif="http://www.serif.com/" style="fill-rule:evenodd;clip-rule:evenodd;stroke-linejoin:round;stroke-miterlimit:1.41421;"><g><g><path d="M51.307,24.163l0,21.449l-17.088,-21.449l17.088,0Z" style="fill:#1a5cc6;"/><path d="M34.219,75.519l0,-22.635l17.088,22.627l-17.088,0.008Z" style="fill:#1a5cc6;"/><path d="M85.837,24.163l-19.274,51.356l0,-45.111l19.274,-6.245Z" style="fill:#1a5cc6;"/><path d="M110.285,24.163l19.276,51.356l0,-51.356l-19.276,0Z" style="fill:#1a5cc6;"/><path d="M0.152,75.511l17.908,0l0,-35.423l-17.908,35.411l0,0.012Z" style="fill:#1a5cc6;"/><path d="M85.837,16.878l-18.828,0l18.744,-16.519l0.084,16.519Z" style="fill:#1a5cc6;"/><path d="M87.877,63.309l10.184,-26.936l10.183,26.936l-20.367,0Z" style="fill:#1a5cc6;"/></g><g><path d="M2.451,92.466l0.007,-5.92l0.046,0l6.428,6.099l0.326,0l0.012,-10.426l-2.298,-0.003l-0.007,5.734l-0.062,0c-2.143,-2.1 -4.271,-3.843 -6.397,-5.943l-0.341,-0.001l-0.012,10.458l2.298,0.002Z" style="fill:#1a5cc6;fill-rule:nonzero;"/><path d="M18.445,90.7l-4.926,-0.006l0.003,-2.691l4.149,0.005l0.002,-1.723l-4.149,-0.005l0.002,-2.271l4.632,0.005l0.002,-1.785l-6.945,-0.008l-0.012,10.256l7.24,0.008l0.002,-1.785Z" style="fill:#1a5cc6;fill-rule:nonzero;"/><path d="M27.117,92.495l2.347,0.003l-4.775,-10.448l-0.342,0l-4.877,10.436l2.3,0.003l0.717,-1.616l3.932,0.005l0.698,1.617Zm-2.666,-6.047l0.062,0l1.224,2.846l-2.549,-0.003l1.263,-2.843Z" style="fill:#1a5cc6;fill-rule:nonzero;"/><path d="M39.969,82.068l-0.326,-0.001c-1.652,3.48 -3.288,6.975 -4.939,10.437l10.133,0.012l-4.868,-10.448Zm-0.268,3.792l0.031,0l2.201,4.867l-4.414,-0.005c0.732,-1.709 1.449,-3.169 2.182,-4.862Z" style="fill:#1a5cc6;fill-rule:nonzero;"/><path d="M55.063,92.527l0.012,-10.255l-2.314,-0.003l-0.005,4.025l-4.058,-0.004l0.004,-4.026l-2.313,-0.002l-0.012,10.255l2.314,0.003l0.005,-4.429l4.058,0.004l-0.005,4.43l2.314,0.002Z" style="fill:#1a5cc6;fill-rule:nonzero;"/><path d="M62.946,90.641l2.802,-3.12c0.015,0 0.046,0 0.062,0.015l-0.006,5.004l2.236,0.002l0.012,-10.426l-0.326,-0.001l-4.948,5.729c-1.646,-1.929 -3.307,-3.796 -4.951,-5.74l-0.341,0l-0.012,10.426l2.22,0.003l0.006,-5.004c0.015,0 0.031,0 0.047,-0.015l2.857,3.126l0.342,0.001Z" style="fill:#1a5cc6;fill-rule:nonzero;"/><path d="M75.61,92.722c3.233,0.004 5.503,-2.292 5.507,-5.292c0.003,-2.97 -2.23,-5.317 -5.479,-5.321c-3.187,-0.004 -5.535,2.339 -5.539,5.308c-0.003,3 2.091,5.301 5.511,5.305Zm0.041,-8.703c1.943,0.002 3.185,1.527 3.183,3.408c-0.002,1.912 -1.248,3.45 -3.191,3.448c-1.974,-0.003 -3.216,-1.497 -3.214,-3.455c0.002,-1.897 1.294,-3.403 3.222,-3.401Z" style="fill:#1a5cc6;fill-rule:nonzero;"/><path d="M85.521,82.307l-2.329,-0.003l-0.012,10.256l2.329,0.003l0.006,-5.082l3.848,5.086l2.674,0.003l-4.299,-5.319l4.031,-4.937l-2.518,-0.003l-3.736,4.704l0.006,-4.708Z" style="fill:#1a5cc6;fill-rule:nonzero;"/><path d="M93.5,92.572l2.329,0.003l0.004,-3.311l1.71,0.002c2.27,0.003 3.778,-1.501 3.78,-3.499c0.002,-1.75 -1.238,-3.443 -3.881,-3.446l-3.931,-0.005l-0.011,10.256Zm3.552,-8.528c1.384,0.001 1.958,0.877 1.957,1.767c-0.001,0.781 -0.437,1.733 -1.977,1.731l-1.213,-0.001l0.004,-3.499l1.229,0.002Z" style="fill:#1a5cc6;fill-rule:nonzero;"/><path d="M108.388,92.589l2.346,0.003l-4.774,-10.448l-0.342,0l-4.877,10.436l2.3,0.003l0.717,-1.616l3.932,0.005l0.698,1.617Zm-2.667,-6.047l0.063,0l1.224,2.846l-2.549,-0.003l1.262,-2.843Z" style="fill:#1a5cc6;fill-rule:nonzero;"/><path d="M118.592,84.131l0.002,-1.786l-8.297,-0.009l-0.003,1.785l3,0.004l-0.01,8.47l2.314,0.002l0.01,-8.47l2.984,0.004Z" style="fill:#1a5cc6;fill-rule:nonzero;"/><path d="M122.53,92.606l0.012,-10.256l-2.314,-0.003l-0.012,10.256l2.314,0.003Z" style="fill:#1a5cc6;fill-rule:nonzero;"/><path d="M131.794,92.616l2.346,0.003l-4.774,-10.448l-0.342,0l-4.877,10.436l2.3,0.003l0.717,-1.615l3.932,0.004l0.698,1.617Zm-2.667,-6.047l0.063,0l1.224,2.846l-2.549,-0.003l1.262,-2.843Z" style="fill:#1a5cc6;fill-rule:nonzero;"/></g></g></svg>