<svg xmlns="http://www.w3.org/2000/svg" viewBox="0 0 591.5 220.4"><path fill="#509E2F" d="M262.4 141.7c-11.8 0-19.3-6.9-19.3-17.2v-12.6c0-10.2 7.4-17.4 19.3-17.4s19.3 7.2 19.3 17.4v12.6c0 10.3-7.4 17.2-19.3 17.2zm0-6.4c7.9 0 12.1-4.2 12.1-10.8v-12.6c0-6.7-4.2-11-12.1-11-7.8 0-12 4.3-12 11v12.6c0 6.6 4.2 10.8 12 10.8zM293.8 140.7c-.6 0-1-.3-1-1V96.5c0-.6.4-1.1 1-1.1h5.2c.7 0 1.1.4 1.1 1.1v43.3c0 .6-.4 1-1.1 1h-5.2zM342 140.7c-.5 0-1-.2-1.3-.6l-16.6-19.9-5 5v14.5c0 .6-.4 1-1.1 1h-5c-.6 0-1-.3-1-1V96.5c0-.6.4-1.1 1-1.1h5c.6 0 1.1.4 1.1 1.1v19.9L339.3 96c.4-.4.8-.5 1.2-.5h6.3c.8 0 1.1.6.5 1.2l-18.4 18.6 19.8 24.3c.5.7.2 1.2-.6 1.2H342zM370.4 141.7c-11.8 0-19.3-6.9-19.3-17.2v-12.6c0-10.2 7.4-17.4 19.3-17.4s19.3 7.2 19.3 17.4v12.6c0 10.3-7.4 17.2-19.3 17.2zm0-6.4c7.9 0 12.1-4.2 12.1-10.8v-12.6c0-6.7-4.2-11-12.1-11-7.8 0-12 4.3-12 11v12.6c0 6.6 4.2 10.8 12 10.8zM399.7 140.7c-.7 0-1.1-.3-1.1-1V115c0-12.7 8.4-17.5 19-17.5 3.6 0 7.4.8 11.1 2.2v-6.1c0-6.7-4.6-10.1-11.6-10.1-4.8 0-9.5 1.8-12.5 4.1-.5.4-1.1.4-1.5-.1l-2.5-3.6c-.4-.4-.4-1 .1-1.4 3.9-3.3 10-5.4 16.5-5.4 10 0 18.4 5.3 18.4 16.9v45.7c0 .6-.4 1-1 1h-5.2c-.6 0-1.1-.3-1.1-1v-33.6c-3.4-1.4-7.1-2.3-10.8-2.3-7.4 0-11.9 3-11.9 11.2v24.6c0 .6-.4 1-1 1h-4.9zM465.4 141.7c-11.8 0-19.3-6.9-19.3-17.2v-12.6c0-10.2 7.4-17.4 19.3-17.4s19.3 7.2 19.3 17.4v12.6c0 10.3-7.3 17.2-19.3 17.2zm0-6.4c7.9 0 12.1-4.2 12.1-10.8v-12.6c0-6.7-4.2-11-12.1-11-7.8 0-12 4.3-12 11v12.6c0 6.6 4.2 10.8 12 10.8zm-5.3-46.9c-.8 0-1.2-.5-.8-1.2l7.1-11.7c.3-.4.8-.6 1.2-.6h5.5c.8 0 1.1.5.5 1.2l-8.4 11.7c-.3.4-.7.6-1.2.6h-3.9zM506.4 152.2c-.7 0-1.1-.4-1.1-1V140l-16.9-43.4c-.3-.7.1-1.2.8-1.2h5.6c.6 0 1.1.4 1.1.8l7.4 20.6c1.4 3.8 4.2 12.3 5.4 16.2h.2c1.3-4 3.9-12.4 5.3-16.2l7.4-20.6c.2-.4.6-.8 1.1-.8h5.7c.7 0 1.1.5.8 1.2L512.4 140v11.2c0 .6-.4 1-1 1h-5zM554.5 141.7c-11.8 0-19.3-6.9-19.3-17.2v-12.6c0-10.2 7.4-17.4 19.3-17.4s19.3 7.2 19.3 17.4v12.6c0 10.3-7.4 17.2-19.3 17.2zm0-6.4c7.9 0 12.1-4.2 12.1-10.8v-12.6c0-6.7-4.2-11-12.1-11-7.8 0-12 4.3-12 11v12.6c0 6.6 4.2 10.8 12 10.8zM585.2 140.7c-.6 0-1-.3-1-1V96.5c0-.6.4-1.1 1-1.1h5.2c.7 0 1.1.4 1.1 1.1v43.3c0 .6-.4 1-1.1 1h-5.2zM244.5 212.1c-.9 0-1.4-.5-1.4-1.4V157c0-.9.5-1.4 1.4-1.4H285c.9 0 1.4.5 1.4 1.4v53.7c0 .9-.5 1.4-1.4 1.4h-9.9c-.9 0-1.4-.5-1.4-1.4v-43.3h-17.9v43.3c0 .9-.5 1.4-1.3 1.4h-10zM320.3 155.6c12.4 0 20.2 7.7 20.2 20s-7.8 20.1-20.2 20.1h-9.6v15c0 .9-.5 1.4-1.3 1.4h-10c-.9 0-1.3-.5-1.3-1.4V157c0-.9.5-1.4 1.3-1.4h20.9zm-1.7 28.3c6 0 8.9-2.7 8.9-8.3 0-5.5-2.9-8.3-8.9-8.3h-7.9v16.6h7.9zM340.1 212.1c-1 0-1.4-.6-1.1-1.6l18.3-53.8c.3-.7.8-1.1 1.5-1.1h12c.7 0 1.3.4 1.5 1.1l18.3 53.8c.4.9-.1 1.6-1.1 1.6H379c-.8 0-1.4-.4-1.7-1.2l-2.9-9.6h-19.2l-3 9.6c-.2.8-.9 1.2-1.6 1.2h-10.5zm18.4-21.8h12.7c-2.2-7-4.7-15.6-6.2-20.9h-.3c-1.6 5.3-4.1 13.9-6.2 20.9zM433.3 155.6c.9 0 1.3.5 1.3 1.4v8.6c0 .9-.5 1.3-1.3 1.3h-21.6c.9 1.1 3.2 4.2 10.5 14.9.5.6.5 1.3 0 2l-11.5 16.4h22.5c.9 0 1.3.5 1.3 1.4v8.9c0 .9-.5 1.4-1.3 1.4h-38c-.9 0-1.3-.5-1.3-1.4v-5.1c0-.6.2-1.2.6-1.7l14.7-21-14.7-19.9c-.4-.6-.6-1.1-.6-1.7V157c0-.9.5-1.4 1.3-1.4h38.1zM456.8 210.7c0 .9-.5 1.4-1.4 1.4h-9.9c-.9 0-1.4-.5-1.4-1.4V157c0-.9.5-1.4 1.4-1.4h9.9c.9 0 1.4.5 1.4 1.4v53.7zM469.9 212.1c-.9 0-1.4-.5-1.4-1.4V157c0-.9.5-1.4 1.4-1.4h10.5c.7 0 1.3.3 1.6.9l10.6 18.9c3.3 6.3 6.7 13 8.5 16.9l.2-.1c-.6-7.1-.9-14.5-.9-21.1V157c0-.9.5-1.4 1.4-1.4h9.8c.9 0 1.3.5 1.3 1.4v53.7c0 .9-.5 1.4-1.3 1.4h-10.5c-.7 0-1.3-.3-1.7-.9l-10.3-17.1c-3.5-5.8-7.3-13.9-9.2-18.4l-.2.1c.7 7.2 1.3 15.6 1.3 22.5v12.4c0 .9-.5 1.4-1.3 1.4h-9.8zM545.8 213c-14.5 0-23-8.3-23-22.4v-13.7c0-14.1 8.5-22.4 23-22.4s23.1 8.3 23.1 22.4v13.7c0 14.1-8.5 22.4-23.1 22.4zm0-12c6.7 0 10-3.6 10-10.7v-13.2c0-7-3.3-10.6-10-10.6-6.6 0-10 3.6-10 10.6v13.2c0 7.1 3.4 10.7 10 10.7zM591.5 210.7c0 .9-.5 1.4-1.4 1.4h-9.9c-.9 0-1.4-.5-1.4-1.4V157c0-.9.5-1.4 1.4-1.4h9.9c.9 0 1.4.5 1.4 1.4v53.7z"/><path fill="#FFCD00" d="M110.1 60.2c4.4-4 11.1-11.1 11.1-28.1 0-10.6-4.4-24.5-11-32.1-6.7 7.6-11.1 21.5-11.2 32.1.1 16.9 6.8 24 11.1 28.1zM110.1 160.2c4.4 4 11.1 11.1 11.1 28 0 10.6-4.4 24.5-11 32.1-6.7-7.6-11.1-21.5-11.2-32.1.1-16.9 6.8-23.9 11.1-28zM145.6 74.9c5.9.2 15.7 0 27.7-12 7.5-7.5 14.2-20.4 14.9-30.5-10.1.7-23.1 7.3-30.6 14.8-12 12-12.2 21.7-12 27.7zM74.8 145.6c.2 5.9 0 15.7-12 27.7-7.5 7.5-20.4 14.2-30.5 14.9.7-10.1 7.3-23.1 14.8-30.6 12-11.9 21.8-12.2 27.7-12zM160.2 110.3c4 4.4 11.1 11.1 28.1 11.1 10.6 0 24.5-4.4 32.1-11-7.6-6.7-21.5-11.1-32.1-11.2-17 .1-24 6.8-28.1 11.1zM60.2 110.3c-4 4.4-11.1 11.1-28.1 11.1-10.6 0-24.5-4.4-32.1-11 7.6-6.7 21.5-11.1 32.1-11.2 16.9.1 24 6.8 28.1 11.1zM145.5 145.8c-.2 5.9 0 15.7 12 27.7 7.5 7.5 20.4 14.2 30.5 14.9-.7-10.1-7.3-23.1-14.8-30.6-12-12-21.8-12.2-27.7-12zM74.8 75c-5.9.2-15.7 0-27.7-12-7.5-7.5-14.2-20.4-14.9-30.5 10.1.7 23.1 7.3 30.6 14.8 11.9 12 12.2 21.8 12 27.7zM91 64c2.5-5.4 6-14.5-.4-30.2-4-9.8-13.4-20.9-22.5-25.5-3.2 9.6-2.1 24.1 2 33.9C76.5 57.9 85.4 61.9 91 64zM129.2 156.4c5.6 2.1 14.5 6 21 21.6 4.1 9.8 5.3 24.3 2.1 33.9-9.1-4.5-18.5-15.6-22.6-25.4-6.4-15.6-2.9-24.7-.5-30.1zM129.3 64c5.6-2.1 14.5-6 21-21.6 4.1-9.8 5.3-24.3 2.1-33.9-9.1 4.5-18.5 15.6-22.6 25.4-6.4 15.6-2.9 24.7-.5 30.1zM91 156.4c2.5 5.4 6 14.5-.4 30.2-4 9.8-13.4 20.9-22.5 25.5-3.2-9.6-2.1-24.1 2-33.9 6.5-15.7 15.4-19.7 20.9-21.8zM156.4 91.2c5.4 2.5 14.5 6 30.2-.4 9.8-4 20.9-13.4 25.5-22.5-9.6-3.2-24.1-2.1-33.9 2-15.7 6.4-19.7 15.3-21.8 20.9zM64 129.4c-2.1 5.6-6 14.5-21.6 21-9.8 4.1-24.3 5.3-33.9 2.1 4.5-9.1 15.6-18.5 25.4-22.6 15.6-6.4 24.7-2.9 30.1-.5zM156.4 129.5c2.1 5.6 6 14.5 21.6 21 9.8 4.1 24.3 5.3 33.9 2.1-4.5-9.1-15.6-18.5-25.4-22.6-15.6-6.4-24.7-2.9-30.1-.5zM64 91.2c-5.4 2.5-14.5 6-30.2-.4-9.8-4-20.9-13.4-25.5-22.5 9.6-3.2 24.1-2.1 33.9 2C57.9 76.8 61.9 85.7 64 91.2z"/><ellipse transform="rotate(-79.327 110.196 110.282)" fill="#509E2F" cx="110.2" cy="110.3" rx="5.2" ry="5.2"/><ellipse transform="rotate(-79.327 102.662 105.375)" fill="#509E2F" cx="102.7" cy="105.4" rx="2.7" ry="2.7"/><ellipse transform="rotate(-79.327 95.442 106.625)" fill="#509E2F" cx="95.4" cy="106.6" rx="3.5" ry="3.5"/><ellipse transform="rotate(-79.327 88.727 112.88)" fill="#509E2F" cx="88.7" cy="112.9" rx="4.4" ry="4.4"/><ellipse transform="rotate(-79.327 84.771 122.814)" fill="#509E2F" cx="84.8" cy="122.8" rx="5.2" ry="5.2"/><ellipse transform="rotate(-79.327 85.822 135.097)" fill="#509E2F" cx="85.8" cy="135.1" rx="6.1" ry="6.1"/><ellipse transform="rotate(-79.327 94.134 148.401)" fill="#509E2F" cx="94.1" cy="148.4" rx="7" ry="7"/><ellipse transform="rotate(-34.327 108.334 101.496)" fill="#509E2F" cx="108.3" cy="101.5" rx="2.7" ry="2.7"/><ellipse transform="rotate(-34.327 102.349 97.277)" fill="#509E2F" cx="102.3" cy="97.3" rx="3.5" ry="3.5"/><ellipse transform="rotate(-34.327 93.175 96.95)" fill="#509E2F" cx="93.2" cy="96.9" rx="4.4" ry="4.4"/><ellipse transform="rotate(-34.327 83.352 101.177)" fill="#509E2F" cx="83.4" cy="101.2" rx="5.2" ry="5.2"/><ellipse transform="rotate(-34.327 75.412 110.608)" fill="#509E2F" cx="75.4" cy="110.6" rx="6.1" ry="6.1"/><ellipse transform="rotate(-34.327 71.882 125.893)" fill="#509E2F" cx="71.9" cy="125.9" rx="7" ry="7"/><ellipse transform="rotate(-79.327 115.088 102.762)" fill="#509E2F" cx="115.1" cy="102.8" rx="2.7" ry="2.7"/><ellipse transform="rotate(-79.327 113.838 95.54)" fill="#509E2F" cx="113.8" cy="95.5" rx="3.5" ry="3.5"/><ellipse transform="rotate(-79.327 107.582 88.826)" fill="#509E2F" cx="107.6" cy="88.8" rx="4.4" ry="4.4"/><ellipse transform="rotate(-79.327 97.648 84.87)" fill="#509E2F" cx="97.6" cy="84.9" rx="5.2" ry="5.2"/><ellipse transform="rotate(-79.327 85.365 85.921)" fill="#509E2F" cx="85.4" cy="85.9" rx="6.1" ry="6.1"/><ellipse transform="rotate(-79.327 72.062 94.232)" fill="#509E2F" cx="72.1" cy="94.2" rx="7" ry="7"/><ellipse transform="rotate(-34.327 118.971 108.436)" fill="#509E2F" cx="119" cy="108.4" rx="2.7" ry="2.7"/><ellipse transform="rotate(-34.327 123.19 102.445)" fill="#509E2F" cx="123.2" cy="102.4" rx="3.5" ry="3.5"/><ellipse transform="rotate(-34.327 123.516 93.274)" fill="#509E2F" cx="123.5" cy="93.3" rx="4.4" ry="4.4"/><ellipse transform="rotate(-34.327 119.292 83.452)" fill="#509E2F" cx="119.3" cy="83.4" rx="5.2" ry="5.2"/><ellipse transform="rotate(-34.327 109.862 75.51)" fill="#509E2F" cx="109.9" cy="75.5" rx="6.1" ry="6.1"/><ellipse transform="rotate(-34.327 94.578 71.98)" fill="#509E2F" cx="94.6" cy="72" rx="7" ry="7"/><ellipse transform="rotate(-79.327 117.702 115.187)" fill="#509E2F" cx="117.7" cy="115.2" rx="2.7" ry="2.7"/><ellipse transform="rotate(-79.327 124.92 113.937)" fill="#509E2F" cx="124.9" cy="113.9" rx="3.5" ry="3.5"/><ellipse transform="rotate(-79.327 131.636 107.681)" fill="#509E2F" cx="131.6" cy="107.7" rx="4.4" ry="4.4"/><ellipse transform="rotate(-79.327 135.593 97.748)" fill="#509E2F" cx="135.6" cy="97.7" rx="5.2" ry="5.2"/><ellipse transform="rotate(-79.327 134.541 85.465)" fill="#509E2F" cx="134.5" cy="85.5" rx="6.1" ry="6.1"/><ellipse transform="rotate(-79.327 126.23 72.16)" fill="#509E2F" cx="126.2" cy="72.2" rx="7" ry="7"/><ellipse transform="rotate(-34.327 112.032 119.07)" fill="#509E2F" cx="112" cy="119.1" rx="2.7" ry="2.7"/><ellipse transform="rotate(-34.327 118.023 123.293)" fill="#509E2F" cx="118" cy="123.3" rx="3.5" ry="3.5"/><ellipse transform="rotate(-34.327 127.193 123.616)" fill="#509E2F" cx="127.2" cy="123.6" rx="4.4" ry="4.4"/><ellipse transform="rotate(-34.327 137.017 119.39)" fill="#509E2F" cx="137" cy="119.4" rx="5.2" ry="5.2"/><ellipse transform="rotate(-34.327 144.96 109.962)" fill="#509E2F" cx="145" cy="110" rx="6.1" ry="6.1"/><ellipse transform="rotate(-34.327 148.49 94.677)" fill="#509E2F" cx="148.5" cy="94.7" rx="7" ry="7"/><ellipse transform="rotate(-79.327 105.276 117.8)" fill="#509E2F" cx="105.3" cy="117.8" rx="2.7" ry="2.7"/><ellipse transform="rotate(-79.327 106.526 125.021)" fill="#509E2F" cx="106.5" cy="125" rx="3.5" ry="3.5"/><ellipse transform="rotate(-79.327 112.781 131.735)" fill="#509E2F" cx="112.8" cy="131.7" rx="4.4" ry="4.4"/><ellipse transform="rotate(-79.327 122.716 135.692)" fill="#509E2F" cx="122.7" cy="135.7" rx="5.2" ry="5.2"/><ellipse transform="rotate(-79.327 134.997 134.64)" fill="#509E2F" cx="135" cy="134.6" rx="6.1" ry="6.1"/><ellipse transform="rotate(-79.327 148.302 126.33)" fill="#509E2F" cx="148.3" cy="126.3" rx="7" ry="7"/><ellipse transform="rotate(-34.327 101.398 112.132)" fill="#509E2F" cx="101.4" cy="112.1" rx="2.7" ry="2.7"/><ellipse transform="rotate(-34.327 97.176 118.122)" fill="#509E2F" cx="97.2" cy="118.1" rx="3.5" ry="3.5"/><ellipse transform="rotate(-34.327 96.851 127.293)" fill="#509E2F" cx="96.8" cy="127.3" rx="4.4" ry="4.4"/><ellipse transform="rotate(-34.327 101.079 137.116)" fill="#509E2F" cx="101.1" cy="137.1" rx="5.2" ry="5.2"/><ellipse transform="rotate(-34.327 110.509 145.059)" fill="#509E2F" cx="110.5" cy="145.1" rx="6.1" ry="6.1"/><ellipse transform="rotate(-34.327 125.792 148.588)" fill="#509E2F" cx="125.8" cy="148.6" rx="7" ry="7"/></svg>