<svg xmlns:dc="http://purl.org/dc/elements/1.1/" xmlns:cc="http://creativecommons.org/ns#" xmlns:rdf="http://www.w3.org/1999/02/22-rdf-syntax-ns#" xmlns:svg="http://www.w3.org/2000/svg" xmlns="http://www.w3.org/2000/svg" xmlns:sodipodi="http://sodipodi.sourceforge.net/DTD/sodipodi-0.dtd" xmlns:inkscape="http://www.inkscape.org/namespaces/inkscape" version="1.1" width="360.64484" height="179.37245" id="svg930" sodipodi:docname="Greek_Parliament_2019-4.svg" inkscape:version="1.0.1 (c497b03c, 2020-09-10)">
  <metadata id="metadata936">
    <rdf:RDF>
      <cc:Work rdf:about="">
        <dc:format>image/svg+xml</dc:format>
        <dc:type rdf:resource="http://purl.org/dc/dcmitype/StillImage"/>
      </cc:Work>
    </rdf:RDF>
  </metadata>
  <defs id="defs934">
    <rect x="129.21097" y="136.35881" width="96.22094" height="48.385387" id="rect966"/>
    <rect x="223.78241" y="172.09802" width="96.770767" height="40.68771" id="rect960"/>
  </defs>
  <sodipodi:namedview pagecolor="#ffffff" bordercolor="#666666" borderopacity="1" objecttolerance="10" gridtolerance="10" guidetolerance="10" inkscape:pageopacity="0" inkscape:pageshadow="2" inkscape:window-width="1440" inkscape:window-height="900" id="namedview932" showgrid="false" inkscape:zoom="1.1034277" inkscape:cx="268.86538" inkscape:cy="23.579811" inkscape:window-x="0" inkscape:window-y="0" inkscape:window-maximized="0" inkscape:current-layer="g312" inkscape:document-rotation="0"/>
  <!-- Created with the Wikimedia parliament diagram creator (http://parliamentdiagram.toolforge.org/parliamentinputform.html) -->
  <g id="g928" transform="translate(-0.40295085,-5.9680058)">
    <text x="175" y="175" style="font-weight:bold;font-size:36px;line-height:0;font-family:sans-serif;text-align:center;text-anchor:middle" id="text938"/>
    <text xml:space="preserve" id="text958" style="font-size:40px;line-height:1.25;font-family:sans-serif;word-spacing:0px;white-space:pre;shape-inside:url(#rect960);"/>
    <text xml:space="preserve" id="text964" style="font-size:40px;line-height:1.25;font-family:sans-serif;word-spacing:0px;white-space:pre;shape-inside:url(#rect966);"/>
    <g id="g312" transform="matrix(0.74978137,0,0,0.74978137,0.77784153,6.3428965)">
      <path id="vl0" fill="#054b87" stroke="#054b87" d="m 256.855,40.896 c -2.63,0 -4.77,-2.14 -4.77,-4.771 0,-2.631 2.139,-4.771 4.77,-4.771 2.63,0 4.77,2.139 4.77,4.771 0,2.631 -2.14,4.771 -4.77,4.771 z"/>
      <path id="vl1" fill="#054b87" stroke="#054b87" d="m 256.939,71.834 c -2.631,0 -4.771,-2.139 -4.771,-4.77 0,-2.63 2.14,-4.771 4.771,-4.771 2.628,0 4.769,2.14 4.769,4.771 0,2.631 -2.139,4.77 -4.769,4.77 z"/>
      <path id="vl2" fill="#054b87" stroke="#054b87" d="m 320.855,56.774 c -2.631,0 -4.771,-2.139 -4.771,-4.77 0,-2.631 2.14,-4.769 4.771,-4.769 2.628,0 4.768,2.139 4.768,4.769 0.001,2.631 -2.138,4.77 -4.768,4.77 z"/>
      <path id="vl3" fill="#054b87" stroke="#054b87" d="m 328.634,43.365 c -2.629,0 -4.769,-2.141 -4.769,-4.771 0,-2.631 2.14,-4.771 4.769,-4.771 2.631,0 4.771,2.139 4.771,4.771 0,2.63 -2.139,4.771 -4.771,4.771 z"/>
      <path id="vl4" fill="#054b87" stroke="#054b87" d="m 337.69,30.536 c -2.631,0 -4.771,-2.139 -4.771,-4.77 0,-2.63 2.14,-4.771 4.771,-4.771 2.631,0 4.771,2.141 4.771,4.771 0,2.631 -2.14,4.77 -4.771,4.77 z"/>
      <path id="vl5" fill="#054b87" stroke="#054b87" d="m 297.142,130.674 c -2.629,0 -4.772,-2.139 -4.772,-4.769 0,-2.63 2.142,-4.769 4.772,-4.769 2.631,0 4.77,2.139 4.77,4.769 0,2.631 -2.14,4.769 -4.77,4.769 z"/>
      <path id="vl6" fill="#054b87" stroke="#054b87" d="m 289.39,144.029 c -2.629,0 -4.771,-2.139 -4.771,-4.769 0,-2.63 2.142,-4.77 4.771,-4.77 2.631,0 4.77,2.139 4.77,4.77 0,2.631 -2.14,4.769 -4.77,4.769 z"/>
      <path id="vl7" fill="#054b87" stroke="#054b87" d="m 304.879,117.321 c -2.631,0 -4.772,-2.141 -4.772,-4.771 0,-2.63 2.141,-4.771 4.772,-4.771 2.631,0 4.771,2.14 4.771,4.771 0,2.631 -2.14,4.771 -4.771,4.771 z"/>
      <path id="vl8" fill="#054b87" stroke="#054b87" d="m 312.603,103.966 c -2.631,0 -4.771,-2.139 -4.771,-4.771 0,-2.631 2.141,-4.771 4.771,-4.771 2.631,0 4.772,2.139 4.772,4.771 0,2.632 -2.14,4.771 -4.772,4.771 z"/>
      <path id="vl9" fill="#054b87" stroke="#054b87" d="m 320.342,90.612 c -2.631,0 -4.771,-2.14 -4.771,-4.771 0,-2.631 2.14,-4.771 4.771,-4.771 2.631,0 4.772,2.141 4.772,4.771 0,2.63 -2.141,4.771 -4.772,4.771 z"/>
      <path id="vl10" fill="#054b87" stroke="#054b87" d="m 328.065,77.271 c -2.628,0 -4.769,-2.139 -4.769,-4.771 0,-2.631 2.14,-4.771 4.769,-4.771 2.631,0 4.771,2.14 4.771,4.771 0,2.632 -2.14,4.771 -4.771,4.771 z"/>
      <path id="vl11" fill="#054b87" stroke="#054b87" d="m 337.354,63.938 c -2.631,0 -4.771,-2.14 -4.771,-4.771 0,-2.631 2.14,-4.771 4.771,-4.771 2.631,0 4.771,2.14 4.771,4.771 0,2.631 -2.14,4.771 -4.771,4.771 z"/>
      <path id="vl12" fill="#054b87" stroke="#054b87" d="m 377.366,205.242 c -2.631,0 -4.77,-2.141 -4.77,-4.771 0,-2.629 2.14,-4.77 4.77,-4.77 2.629,0 4.769,2.14 4.769,4.77 0.001,2.63 -2.139,4.771 -4.769,4.771 z"/>
      <path id="vl13" fill="#054b87" stroke="#054b87" d="m 436.899,189.253 c -2.63,0 -4.77,-2.139 -4.77,-4.769 0,-2.631 2.139,-4.772 4.77,-4.772 2.63,0 4.77,2.141 4.77,4.772 0,2.629 -2.14,4.769 -4.77,4.769 z"/>
      <path id="vl14" fill="#054b87" stroke="#054b87" d="m 452.86,189.253 c -2.628,0 -4.768,-2.139 -4.768,-4.769 0,-2.631 2.14,-4.772 4.768,-4.772 2.631,0 4.772,2.141 4.772,4.772 0,2.629 -2.14,4.769 -4.772,4.769 z"/>
      <path id="vl15" fill="#054b87" stroke="#054b87" d="m 393.341,205.27 c -2.63,0 -4.77,-2.139 -4.77,-4.771 0,-2.631 2.14,-4.771 4.77,-4.771 2.63,0 4.77,2.14 4.77,4.771 -10e-4,2.632 -2.14,4.771 -4.77,4.771 z"/>
      <path id="vl16" fill="#054b87" stroke="#054b87" d="m 409.205,205.297 c -2.63,0 -4.77,-2.139 -4.77,-4.77 0,-2.63 2.14,-4.771 4.77,-4.771 2.629,0 4.771,2.14 4.771,4.771 0.002,2.631 -2.14,4.77 -4.771,4.77 z"/>
      <path id="vl17" fill="#054b87" stroke="#054b87" d="m 469.461,192.331 c -2.631,0 -4.771,-2.139 -4.771,-4.771 0,-2.631 2.14,-4.771 4.771,-4.771 2.629,0 4.769,2.139 4.769,4.771 -0.001,2.632 -2.138,4.771 -4.769,4.771 z"/>
      <path id="vl18" fill="#054b87" stroke="#054b87" d="m 425.001,205.325 c -2.629,0 -4.769,-2.141 -4.769,-4.769 0,-2.628 2.14,-4.769 4.769,-4.769 2.63,0 4.77,2.141 4.77,4.769 0,2.628 -2.14,4.769 -4.77,4.769 z"/>
      <path id="vl19" fill="#054b87" stroke="#054b87" d="m 349.658,221.468 c -2.629,0 -4.77,-2.141 -4.77,-4.771 0,-2.629 2.141,-4.771 4.77,-4.771 2.63,0 4.77,2.142 4.77,4.771 0,2.63 -2.14,4.771 -4.77,4.771 z"/>
      <path id="vl20" fill="#054b87" stroke="#054b87" d="m 440.727,205.366 c -2.628,0 -4.768,-2.14 -4.768,-4.771 0,-2.628 2.14,-4.768 4.768,-4.768 2.632,0 4.771,2.14 4.771,4.768 -10e-4,2.631 -2.14,4.771 -4.771,4.771 z"/>
      <path id="vl21" fill="#054b87" stroke="#054b87" d="m 365.37,221.523 c -2.63,0 -4.77,-2.14 -4.77,-4.771 0,-2.63 2.14,-4.77 4.77,-4.77 2.629,0 4.77,2.14 4.77,4.77 0,2.631 -2.14,4.771 -4.77,4.771 z"/>
      <path id="vl22" fill="#054b87" stroke="#054b87" d="m 456.411,205.395 c -2.631,0 -4.771,-2.139 -4.771,-4.771 0,-2.631 2.14,-4.77 4.771,-4.77 2.629,0 4.769,2.139 4.769,4.77 0,2.632 -2.138,4.771 -4.769,4.771 z"/>
      <path id="vl23" fill="#054b87" stroke="#054b87" d="m 472.386,207.489 c -2.628,0 -4.768,-2.141 -4.768,-4.771 0,-2.629 2.14,-4.77 4.768,-4.77 2.63,0 4.77,2.141 4.77,4.77 0,2.631 -2.139,4.771 -4.77,4.771 z"/>
      <path id="vl24" fill="#054b87" stroke="#054b87" d="m 396.614,221.619 c -2.631,0 -4.771,-2.14 -4.771,-4.769 0,-2.628 2.14,-4.768 4.771,-4.768 2.631,0 4.771,2.14 4.771,4.768 0,2.629 -2.14,4.769 -4.771,4.769 z"/>
      <path id="vl25" fill="#054b87" stroke="#054b87" d="m 381.013,221.619 c -2.631,0 -4.772,-2.14 -4.772,-4.769 0,-2.628 2.14,-4.768 4.772,-4.768 2.631,0 4.771,2.14 4.771,4.768 0,2.629 -2.14,4.769 -4.771,4.769 z"/>
      <path id="vl26" fill="#054b87" stroke="#054b87" d="m 412.173,221.661 c -2.628,0 -4.769,-2.139 -4.769,-4.771 0,-2.628 2.14,-4.768 4.769,-4.768 2.63,0 4.77,2.14 4.77,4.768 0,2.631 -2.14,4.771 -4.77,4.771 z"/>
      <path id="vl27" fill="#054b87" stroke="#054b87" d="m 443.224,221.716 c -2.63,0 -4.77,-2.139 -4.77,-4.769 0,-2.63 2.14,-4.769 4.77,-4.769 2.629,0 4.769,2.139 4.769,4.769 0,2.63 -2.14,4.769 -4.769,4.769 z"/>
      <path id="vl28" fill="#054b87" stroke="#054b87" d="m 427.705,221.716 c -2.63,0 -4.77,-2.139 -4.77,-4.769 0,-2.63 2.14,-4.769 4.77,-4.769 2.629,0 4.769,2.139 4.769,4.769 0,2.63 -2.14,4.769 -4.769,4.769 z"/>
      <path id="vl29" fill="#054b87" stroke="#054b87" d="m 458.727,221.744 c -2.631,0 -4.77,-2.139 -4.77,-4.77 0,-2.629 2.14,-4.77 4.77,-4.77 2.629,0 4.769,2.141 4.769,4.77 0,2.631 -2.139,4.77 -4.769,4.77 z"/>
      <path id="vl30" fill="#054b87" stroke="#054b87" d="m 474.315,222.812 c -2.631,0 -4.771,-2.141 -4.771,-4.772 0,-2.628 2.14,-4.768 4.771,-4.768 2.629,0 4.769,2.14 4.769,4.768 10e-4,2.632 -2.139,4.772 -4.769,4.772 z"/>
      <path id="vl31" fill="#054b87" stroke="#054b87" d="m 351.862,238.233 c -2.628,0 -4.769,-2.14 -4.769,-4.77 0,-2.629 2.14,-4.77 4.769,-4.77 2.632,0 4.771,2.14 4.771,4.77 0.001,2.63 -2.139,4.77 -4.771,4.77 z"/>
      <path id="vl32" fill="#054b87" stroke="#054b87" d="m 367.298,238.233 c -2.629,0 -4.77,-2.14 -4.77,-4.77 0,-2.629 2.141,-4.77 4.77,-4.77 2.63,0 4.77,2.14 4.77,4.77 0,2.63 -2.14,4.77 -4.77,4.77 z"/>
      <path id="vl33" fill="#054b87" stroke="#054b87" d="m 382.718,238.233 c -2.628,0 -4.769,-2.14 -4.769,-4.77 0,-2.629 2.141,-4.77 4.769,-4.77 2.632,0 4.771,2.14 4.771,4.77 0,2.63 -2.139,4.77 -4.771,4.77 z"/>
      <path id="vl34" fill="#054b87" stroke="#054b87" d="m 398.139,238.233 c -2.631,0 -4.771,-2.14 -4.771,-4.77 0,-2.629 2.14,-4.77 4.771,-4.77 2.631,0 4.771,2.14 4.771,4.77 0,2.63 -2.14,4.77 -4.771,4.77 z"/>
      <path id="vl35" fill="#054b87" stroke="#054b87" d="m 413.56,238.233 c -2.628,0 -4.768,-2.14 -4.768,-4.77 0,-2.629 2.14,-4.77 4.768,-4.77 2.631,0 4.77,2.14 4.77,4.77 0,2.63 -2.14,4.77 -4.77,4.77 z"/>
      <path id="vl36" fill="#054b87" stroke="#054b87" d="m 428.981,238.233 c -2.632,0 -4.772,-2.14 -4.772,-4.77 0,-2.629 2.14,-4.77 4.772,-4.77 2.631,0 4.77,2.14 4.77,4.77 0.001,2.63 -2.139,4.77 -4.77,4.77 z"/>
      <path id="vl37" fill="#054b87" stroke="#054b87" d="m 444.402,238.233 c -2.63,0 -4.77,-2.14 -4.77,-4.77 0,-2.629 2.14,-4.77 4.77,-4.77 2.628,0 4.768,2.14 4.768,4.77 10e-4,2.63 -2.138,4.77 -4.768,4.77 z"/>
      <path id="vl38" fill="#054b87" stroke="#054b87" d="m 459.808,238.233 c -2.628,0 -4.769,-2.14 -4.769,-4.77 0,-2.629 2.14,-4.77 4.769,-4.77 2.632,0 4.771,2.14 4.771,4.77 0,2.63 -2.139,4.77 -4.771,4.77 z"/>
      <path id="vl39" fill="#054b87" stroke="#054b87" d="m 475.23,238.233 c -2.63,0 -4.77,-2.14 -4.77,-4.77 0,-2.629 2.14,-4.77 4.77,-4.77 2.63,0 4.77,2.14 4.77,4.77 0,2.63 -2.139,4.77 -4.77,4.77 z"/>
      <path id="vl40" fill="#054b87" stroke="#054b87" d="m 20.842,238.233 c -2.631,0 -4.771,-2.14 -4.771,-4.77 0,-2.629 2.14,-4.77 4.771,-4.77 2.63,0 4.77,2.14 4.77,4.77 0,2.63 -2.14,4.77 -4.77,4.77 z"/>
      <path id="vl41" fill="#054b87" stroke="#054b87" d="m 36.248,238.233 c -2.63,0 -4.769,-2.14 -4.769,-4.77 0,-2.629 2.139,-4.77 4.769,-4.77 2.632,0 4.771,2.14 4.771,4.77 0.001,2.63 -2.139,4.77 -4.771,4.77 z"/>
      <path id="vl42" fill="#054b87" stroke="#054b87" d="m 51.67,238.233 c -2.63,0 -4.77,-2.14 -4.77,-4.77 0,-2.629 2.14,-4.77 4.77,-4.77 2.631,0 4.771,2.14 4.771,4.77 -0.001,2.63 -2.14,4.77 -4.771,4.77 z"/>
      <path id="vl43" fill="#054b87" stroke="#054b87" d="m 67.091,238.233 c -2.63,0 -4.77,-2.14 -4.77,-4.77 0,-2.629 2.14,-4.77 4.77,-4.77 2.631,0 4.771,2.14 4.771,4.77 -10e-4,2.63 -2.14,4.77 -4.771,4.77 z"/>
      <path id="vl44" fill="#054b87" stroke="#054b87" d="m 82.512,238.233 c -2.63,0 -4.772,-2.14 -4.772,-4.77 0,-2.629 2.141,-4.77 4.772,-4.77 2.631,0 4.771,2.14 4.771,4.77 0,2.63 -2.14,4.77 -4.771,4.77 z"/>
      <path id="vl45" fill="#054b87" stroke="#054b87" d="m 97.933,238.233 c -2.631,0 -4.771,-2.14 -4.771,-4.77 0,-2.629 2.14,-4.77 4.771,-4.77 2.63,0 4.77,2.14 4.77,4.77 0,2.63 -2.141,4.77 -4.77,4.77 z"/>
      <path id="vl46" fill="#054b87" stroke="#054b87" d="m 113.354,238.233 c -2.631,0 -4.771,-2.14 -4.771,-4.77 0,-2.629 2.14,-4.77 4.771,-4.77 2.63,0 4.77,2.14 4.77,4.77 -10e-4,2.63 -2.141,4.77 -4.77,4.77 z"/>
      <path id="vl47" fill="#054b87" stroke="#054b87" d="m 128.788,238.233 c -2.631,0 -4.771,-2.14 -4.771,-4.77 0,-2.629 2.14,-4.77 4.771,-4.77 2.63,0 4.77,2.14 4.77,4.77 0,2.63 -2.14,4.77 -4.77,4.77 z"/>
      <path id="vl48" fill="#054b87" stroke="#054b87" d="m 6.337,222.812 c -2.632,0 -4.771,-2.141 -4.771,-4.772 0,-2.628 2.139,-4.768 4.771,-4.768 2.63,0 4.769,2.14 4.769,4.768 0,2.632 -2.139,4.772 -4.769,4.772 z"/>
      <path id="vl49" fill="#054b87" stroke="#054b87" d="m 21.923,221.744 c -2.63,0 -4.77,-2.139 -4.77,-4.77 0,-2.629 2.14,-4.77 4.77,-4.77 2.631,0 4.771,2.141 4.771,4.77 0,2.631 -2.14,4.77 -4.771,4.77 z"/>
      <path id="vl50" fill="#054b87" stroke="#054b87" d="m 37.428,221.716 c -2.631,0 -4.771,-2.139 -4.771,-4.769 0,-2.63 2.14,-4.769 4.771,-4.769 2.63,0 4.77,2.139 4.77,4.769 0,2.63 -2.14,4.769 -4.77,4.769 z"/>
      <path id="vl51" fill="#054b87" stroke="#054b87" d="m 52.945,221.689 c -2.63,0 -4.769,-2.14 -4.769,-4.77 0,-2.633 2.139,-4.772 4.769,-4.772 2.632,0 4.771,2.139 4.771,4.772 0,2.63 -2.139,4.77 -4.771,4.77 z"/>
      <path id="vl52" fill="#054b87" stroke="#054b87" d="m 68.477,221.661 c -2.629,0 -4.77,-2.139 -4.77,-4.771 0,-2.628 2.141,-4.768 4.77,-4.768 2.632,0 4.771,2.14 4.771,4.768 0,2.631 -2.139,4.771 -4.771,4.771 z"/>
      <path id="vl53" fill="#054b87" stroke="#054b87" d="m 84.036,221.619 c -2.629,0 -4.77,-2.14 -4.77,-4.769 0,-2.628 2.14,-4.768 4.77,-4.768 2.631,0 4.771,2.14 4.771,4.768 0.001,2.629 -2.139,4.769 -4.771,4.769 z"/>
      <path id="vl54" fill="#054b87" stroke="#054b87" d="M 4.772,236.91 C 2.14,236.91 0,234.77 0,232.139 c 0,-2.629 2.14,-4.769 4.772,-4.769 2.63,0 4.769,2.14 4.769,4.769 -0.001,2.631 -2.14,4.771 -4.769,4.771 z"/>
      <path id="vl55" fill="#054b87" stroke="#054b87" d="m 8.264,207.489 c -2.63,0 -4.77,-2.141 -4.77,-4.771 0,-2.629 2.14,-4.77 4.77,-4.77 2.631,0 4.771,2.141 4.771,4.77 0,2.631 -2.139,4.771 -4.771,4.771 z"/>
      <path id="vl56" fill="#054b87" stroke="#054b87" d="m 99.638,221.578 c -2.63,0 -4.77,-2.14 -4.77,-4.771 0,-2.631 2.14,-4.771 4.77,-4.771 2.631,0 4.771,2.14 4.771,4.771 -0.001,2.631 -2.14,4.771 -4.771,4.771 z"/>
      <path id="vl57" fill="#054b87" stroke="#054b87" d="m 24.24,205.395 c -2.632,0 -4.771,-2.139 -4.771,-4.771 0,-2.631 2.139,-4.77 4.771,-4.77 2.63,0 4.77,2.139 4.77,4.77 0,2.632 -2.14,4.771 -4.77,4.771 z"/>
      <path id="vl58" fill="#054b87" stroke="#054b87" d="m 115.281,221.523 c -2.63,0 -4.77,-2.14 -4.77,-4.771 0,-2.63 2.14,-4.77 4.77,-4.77 2.631,0 4.771,2.14 4.771,4.77 0,2.631 -2.14,4.771 -4.771,4.771 z"/>
      <path id="vl59" fill="#054b87" stroke="#054b87" d="m 39.924,205.366 c -2.632,0 -4.771,-2.14 -4.771,-4.771 0,-2.628 2.14,-4.768 4.771,-4.768 2.631,0 4.771,2.14 4.771,4.768 0,2.631 -2.14,4.771 -4.771,4.771 z"/>
      <path id="vl60" fill="#054b87" stroke="#054b87" d="m 130.993,221.468 c -2.63,0 -4.77,-2.141 -4.77,-4.771 0,-2.629 2.14,-4.771 4.77,-4.771 2.631,0 4.771,2.142 4.771,4.771 0,2.63 -2.14,4.771 -4.771,4.771 z"/>
      <path id="vl61" fill="#054b87" stroke="#054b87" d="m 55.65,205.325 c -2.63,0 -4.77,-2.141 -4.77,-4.769 0,-2.628 2.14,-4.769 4.77,-4.769 2.631,0 4.771,2.141 4.771,4.769 -10e-4,2.628 -2.14,4.769 -4.771,4.769 z"/>
      <path id="vl62" fill="#054b87" stroke="#054b87" d="m 11.19,192.331 c -2.631,0 -4.771,-2.139 -4.771,-4.771 0,-2.631 2.14,-4.771 4.771,-4.771 2.63,0 4.77,2.139 4.77,4.771 0,2.632 -2.14,4.771 -4.77,4.771 z"/>
      <path id="vl63" fill="#054b87" stroke="#054b87" d="m 71.446,205.297 c -2.631,0 -4.771,-2.139 -4.771,-4.77 0,-2.63 2.14,-4.771 4.771,-4.771 2.629,0 4.77,2.14 4.77,4.771 0,2.631 -2.141,4.77 -4.77,4.77 z"/>
      <path id="vl64" fill="#054b87" stroke="#054b87" d="m 87.31,205.27 c -2.63,0 -4.77,-2.139 -4.77,-4.771 0,-2.631 2.14,-4.771 4.77,-4.771 2.631,0 4.771,2.14 4.771,4.771 -0.001,2.632 -2.14,4.771 -4.771,4.771 z"/>
      <path id="vl65" fill="#054b87" stroke="#054b87" d="m 27.79,189.253 c -2.631,0 -4.772,-2.139 -4.772,-4.769 0,-2.631 2.14,-4.772 4.772,-4.772 2.631,0 4.771,2.141 4.771,4.772 0,2.629 -2.14,4.769 -4.771,4.769 z"/>
      <path id="vl66" fill="#054b87" stroke="#054b87" d="m 43.751,189.253 c -2.63,0 -4.77,-2.139 -4.77,-4.769 0,-2.631 2.14,-4.772 4.77,-4.772 2.632,0 4.771,2.141 4.771,4.772 0,2.629 -2.139,4.769 -4.771,4.769 z"/>
      <path id="vl67" fill="#054b87" stroke="#054b87" d="m 103.286,205.242 c -2.631,0 -4.771,-2.141 -4.771,-4.771 0,-2.629 2.14,-4.77 4.771,-4.77 2.63,0 4.77,2.14 4.77,4.77 0,2.63 -2.14,4.771 -4.77,4.771 z"/>
      <path id="vl68" fill="#054b87" stroke="#054b87" d="m 15.101,177.395 c -2.63,0 -4.77,-2.139 -4.77,-4.771 0,-2.629 2.14,-4.768 4.77,-4.768 2.631,0 4.771,2.139 4.771,4.768 0,2.632 -2.141,4.771 -4.771,4.771 z"/>
      <path id="vl69" fill="#054b87" stroke="#054b87" d="m 59.796,189.265 c -2.631,0 -4.771,-2.14 -4.771,-4.77 0,-2.63 2.14,-4.769 4.771,-4.769 2.631,0 4.77,2.139 4.77,4.769 0,2.631 -2.139,4.77 -4.77,4.77 z"/>
      <path id="vl70" fill="#054b87" stroke="#054b87" d="m 119.385,205.229 c -2.629,0 -4.77,-2.14 -4.77,-4.772 0,-2.628 2.141,-4.768 4.77,-4.768 2.631,0 4.771,2.14 4.771,4.768 10e-4,2.631 -2.139,4.772 -4.771,4.772 z"/>
      <path id="vl71" fill="#054b87" stroke="#054b87" d="m 75.967,189.308 c -2.632,0 -4.771,-2.14 -4.771,-4.772 0,-2.628 2.14,-4.768 4.771,-4.768 2.629,0 4.769,2.139 4.769,4.768 0,2.632 -2.14,4.772 -4.769,4.772 z"/>
      <path id="vl72" fill="#054b87" stroke="#054b87" d="m 32.532,173.429 c -2.63,0 -4.77,-2.139 -4.77,-4.768 0,-2.629 2.14,-4.768 4.77,-4.768 2.632,0 4.771,2.139 4.771,4.768 0,2.629 -2.139,4.768 -4.771,4.768 z"/>
      <path id="vl73" fill="#054b87" stroke="#054b87" d="m 48.855,173.513 c -2.631,0 -4.771,-2.141 -4.771,-4.769 0,-2.63 2.14,-4.77 4.771,-4.77 2.63,0 4.77,2.14 4.77,4.77 0,2.628 -2.14,4.769 -4.77,4.769 z"/>
      <path id="vl74" fill="#054b87" stroke="#054b87" d="m 19.982,162.752 c -2.631,0 -4.771,-2.14 -4.771,-4.771 0,-2.631 2.139,-4.771 4.771,-4.771 2.63,0 4.769,2.14 4.769,4.771 10e-4,2.631 -2.138,4.771 -4.769,4.771 z"/>
      <path id="vl75" fill="#054b87" stroke="#054b87" d="m 92.288,189.349 c -2.63,0 -4.77,-2.139 -4.77,-4.77 0,-2.629 2.14,-4.77 4.77,-4.77 2.631,0 4.771,2.141 4.771,4.77 0,2.631 -2.14,4.77 -4.771,4.77 z"/>
      <path id="vl76" fill="#054b87" stroke="#054b87" d="m 135.708,205.213 c -2.632,0 -4.771,-2.14 -4.771,-4.77 0,-2.63 2.139,-4.77 4.771,-4.77 2.63,0 4.77,2.139 4.77,4.77 0,2.63 -2.14,4.77 -4.77,4.77 z"/>
      <path id="vl77" fill="#054b87" stroke="#054b87" d="m 65.33,173.637 c -2.632,0 -4.771,-2.14 -4.771,-4.77 0,-2.629 2.139,-4.77 4.771,-4.77 2.63,0 4.77,2.14 4.77,4.77 0,2.631 -2.14,4.77 -4.77,4.77 z"/>
      <path id="vl78" fill="#054b87" stroke="#054b87" d="m 108.818,189.447 c -2.629,0 -4.77,-2.14 -4.77,-4.771 0,-2.631 2.141,-4.77 4.77,-4.77 2.631,0 4.771,2.139 4.771,4.77 0,2.631 -2.14,4.771 -4.771,4.771 z"/>
      <path id="vl79" fill="#054b87" stroke="#054b87" d="m 38.455,158.009 c -2.631,0 -4.771,-2.14 -4.771,-4.771 0,-2.631 2.14,-4.77 4.771,-4.77 2.63,0 4.77,2.139 4.77,4.77 0,2.632 -2.141,4.771 -4.77,4.771 z"/>
      <path id="vl80" fill="#054b87" stroke="#054b87" d="m 81.998,173.805 c -2.63,0 -4.77,-2.142 -4.77,-4.772 0,-2.628 2.14,-4.768 4.77,-4.768 2.631,0 4.771,2.14 4.771,4.768 0,2.63 -2.139,4.772 -4.771,4.772 z"/>
      <path id="vl81" fill="#054b87" stroke="#054b87" d="m 25.82,148.453 c -2.631,0 -4.77,-2.139 -4.77,-4.77 0,-2.629 2.14,-4.769 4.77,-4.769 2.631,0 4.77,2.14 4.77,4.769 0,2.631 -2.139,4.77 -4.77,4.77 z"/>
      <path id="vl82" fill="#054b87" stroke="#054b87" d="m 55.234,158.244 c -2.631,0 -4.771,-2.14 -4.771,-4.771 0,-2.631 2.14,-4.771 4.771,-4.771 2.63,0 4.771,2.14 4.771,4.771 0,2.632 -2.141,4.771 -4.771,4.771 z"/>
      <path id="vl83" fill="#054b87" stroke="#054b87" d="m 125.612,189.598 c -2.631,0 -4.771,-2.139 -4.771,-4.768 0,-2.631 2.14,-4.771 4.771,-4.771 2.63,0 4.771,2.14 4.771,4.771 0,2.629 -2.14,4.768 -4.771,4.768 z"/>
      <path id="vl84" fill="#054b87" stroke="#054b87" d="m 98.917,174.054 c -2.632,0 -4.771,-2.141 -4.771,-4.772 0,-2.629 2.139,-4.768 4.771,-4.768 2.63,0 4.771,2.139 4.771,4.768 0,2.631 -2.141,4.772 -4.771,4.772 z"/>
      <path id="vl85" fill="#054b87" stroke="#054b87" d="m 72.222,158.548 c -2.631,0 -4.771,-2.138 -4.771,-4.77 0,-2.629 2.139,-4.768 4.771,-4.768 2.63,0 4.771,2.139 4.771,4.768 0,2.632 -2.141,4.77 -4.771,4.77 z"/>
      <path id="vl86" fill="#054b87" stroke="#054b87" d="m 45.526,143.073 c -2.631,0 -4.771,-2.14 -4.771,-4.772 0,-2.628 2.14,-4.767 4.771,-4.767 2.63,0 4.771,2.139 4.771,4.767 0.001,2.633 -2.141,4.772 -4.771,4.772 z"/>
      <path id="vl87" fill="#054b87" stroke="#054b87" d="m 32.588,134.573 c -2.63,0 -4.771,-2.14 -4.771,-4.77 0,-2.629 2.141,-4.77 4.771,-4.77 2.631,0 4.771,2.141 4.771,4.77 0,2.63 -2.14,4.77 -4.771,4.77 z"/>
      <path id="vl88" fill="#054b87" stroke="#054b87" d="m 142.822,189.876 c -2.631,0 -4.771,-2.14 -4.771,-4.771 0,-2.629 2.14,-4.769 4.771,-4.769 2.63,0 4.77,2.14 4.77,4.769 0,2.631 -2.139,4.771 -4.77,4.771 z"/>
      <path id="vl89" fill="#054b87" stroke="#054b87" d="m 116.154,174.401 c -2.629,0 -4.77,-2.142 -4.77,-4.772 0,-2.629 2.14,-4.769 4.77,-4.769 2.632,0 4.771,2.14 4.771,4.769 0,2.631 -2.139,4.772 -4.771,4.772 z"/>
      <path id="vl90" fill="#054b87" stroke="#054b87" d="m 89.487,158.965 c -2.631,0 -4.771,-2.14 -4.771,-4.77 0,-2.63 2.141,-4.771 4.771,-4.771 2.63,0 4.77,2.141 4.77,4.771 0,2.63 -2.14,4.77 -4.77,4.77 z"/>
      <path id="vl91" fill="#054b87" stroke="#054b87" d="m 62.819,143.531 c -2.63,0 -4.77,-2.14 -4.77,-4.771 0,-2.629 2.14,-4.769 4.77,-4.769 2.631,0 4.77,2.14 4.77,4.769 0.001,2.631 -2.138,4.771 -4.77,4.771 z"/>
      <path id="vl92" fill="#054b87" stroke="#054b87" d="m 40.257,121.162 c -2.632,0 -4.771,-2.14 -4.771,-4.771 0,-2.63 2.139,-4.77 4.771,-4.77 2.63,0 4.769,2.14 4.769,4.77 0,2.631 -2.139,4.771 -4.769,4.771 z"/>
      <path id="vl93" fill="#054b87" stroke="#054b87" d="m 53.694,128.719 c -2.63,0 -4.77,-2.139 -4.77,-4.77 0,-2.629 2.139,-4.769 4.77,-4.769 2.631,0 4.771,2.14 4.771,4.769 0,2.631 -2.139,4.77 -4.771,4.77 z"/>
      <path id="vl94" fill="#054b87" stroke="#054b87" d="m 80.404,144.128 c -2.631,0 -4.771,-2.14 -4.771,-4.77 0,-2.63 2.14,-4.771 4.771,-4.771 2.63,0 4.77,2.142 4.77,4.771 0,2.63 -2.14,4.77 -4.77,4.77 z"/>
      <path id="vl95" fill="#054b87" stroke="#054b87" d="m 107.126,159.534 c -2.629,0 -4.771,-2.14 -4.771,-4.77 0,-2.629 2.142,-4.77 4.771,-4.77 2.631,0 4.771,2.14 4.771,4.77 10e-4,2.63 -2.139,4.77 -4.771,4.77 z"/>
      <path id="vl96" fill="#054b87" stroke="#054b87" d="m 133.851,174.94 c -2.632,0 -4.771,-2.141 -4.771,-4.77 0,-2.63 2.14,-4.77 4.771,-4.77 2.63,0 4.769,2.14 4.769,4.77 0,2.63 -2.14,4.77 -4.769,4.77 z"/>
      <path id="vl97" fill="#054b87" stroke="#054b87" d="m 71.57,129.483 c -2.631,0 -4.771,-2.14 -4.771,-4.769 0,-2.629 2.139,-4.771 4.771,-4.771 2.63,0 4.77,2.142 4.77,4.771 0,2.629 -2.139,4.769 -4.77,4.769 z"/>
      <path id="vl98" fill="#054b87" stroke="#054b87" d="m 98.362,144.904 c -2.63,0 -4.77,-2.14 -4.77,-4.771 0,-2.629 2.14,-4.77 4.77,-4.77 2.631,0 4.771,2.14 4.771,4.77 0,2.631 -2.14,4.771 -4.771,4.771 z"/>
      <path id="vl99" fill="#054b87" stroke="#054b87" d="m 48.771,108.294 c -2.63,0 -4.769,-2.14 -4.769,-4.771 0,-2.632 2.139,-4.771 4.769,-4.771 2.632,0 4.771,2.139 4.771,4.771 0,2.63 -2.139,4.771 -4.771,4.771 z"/>
      <path id="vl100" fill="#054b87" stroke="#054b87" d="m 62.917,115.018 c -2.632,0 -4.771,-2.139 -4.771,-4.77 0,-2.631 2.14,-4.771 4.771,-4.771 2.629,0 4.769,2.139 4.769,4.771 0,2.631 -2.14,4.77 -4.769,4.77 z"/>
      <path id="vl101" fill="#054b87" stroke="#054b87" d="m 125.224,160.339 c -2.63,0 -4.77,-2.141 -4.77,-4.77 0,-2.63 2.14,-4.771 4.77,-4.771 2.631,0 4.771,2.14 4.771,4.771 0,2.629 -2.141,4.77 -4.771,4.77 z"/>
      <path id="vl102" fill="#054b87" stroke="#054b87" d="m 89.821,130.468 c -2.632,0 -4.771,-2.141 -4.771,-4.771 0,-2.629 2.14,-4.77 4.771,-4.77 2.629,0 4.769,2.14 4.769,4.77 0,2.63 -2.14,4.771 -4.769,4.771 z"/>
      <path id="vl103" fill="#054b87" stroke="#054b87" d="m 152.169,175.773 c -2.632,0 -4.771,-2.139 -4.771,-4.771 0,-2.628 2.139,-4.769 4.771,-4.769 2.63,0 4.77,2.14 4.77,4.769 0,2.631 -2.14,4.771 -4.77,4.771 z"/>
      <path id="vl104" fill="#054b87" stroke="#054b87" d="m 116.807,145.958 c -2.631,0 -4.771,-2.14 -4.771,-4.771 0,-2.63 2.14,-4.769 4.771,-4.769 2.63,0 4.77,2.139 4.77,4.769 0,2.63 -2.14,4.771 -4.77,4.771 z"/>
      <path id="vl105" fill="#054b87" stroke="#054b87" d="m 81.43,116.197 c -2.63,0 -4.77,-2.139 -4.77,-4.771 0,-2.63 2.14,-4.77 4.77,-4.77 2.631,0 4.771,2.14 4.771,4.77 0,2.632 -2.14,4.771 -4.771,4.771 z"/>
      <path id="vl106" fill="#054b87" stroke="#054b87" d="m 58.132,96.006 c -2.63,0 -4.77,-2.14 -4.77,-4.771 0,-2.63 2.14,-4.771 4.77,-4.771 2.632,0 4.771,2.14 4.771,4.771 0,2.631 -2.139,4.771 -4.771,4.771 z"/>
      <path id="vl107" fill="#054b87" stroke="#054b87" d="m 73.151,102.038 c -2.63,0 -4.771,-2.139 -4.771,-4.77 0,-2.631 2.141,-4.77 4.771,-4.77 2.631,0 4.771,2.139 4.771,4.77 0,2.631 -2.14,4.77 -4.771,4.77 z"/>
      <path id="vl108" fill="#054b87" stroke="#054b87" d="m 108.555,131.758 c -2.631,0 -4.771,-2.141 -4.771,-4.773 0,-2.628 2.139,-4.768 4.771,-4.768 2.63,0 4.77,2.14 4.77,4.768 0,2.632 -2.139,4.773 -4.77,4.773 z"/>
      <path id="vl109" fill="#054b87" stroke="#054b87" d="m 143.945,161.489 c -2.629,0 -4.77,-2.14 -4.77,-4.769 0,-2.631 2.14,-4.773 4.77,-4.773 2.631,0 4.771,2.142 4.771,4.773 0,2.63 -2.14,4.769 -4.771,4.769 z"/>
      <path id="vl110" fill="#054b87" stroke="#054b87" d="m 100.401,117.695 c -2.631,0 -4.771,-2.139 -4.771,-4.77 0,-2.631 2.14,-4.77 4.771,-4.77 2.63,0 4.77,2.139 4.77,4.77 0,2.631 -2.139,4.77 -4.77,4.77 z"/>
      <path id="vl111" fill="#054b87" stroke="#054b87" d="m 135.874,147.414 c -2.631,0 -4.77,-2.14 -4.77,-4.771 0,-2.629 2.14,-4.77 4.77,-4.77 2.63,0 4.77,2.141 4.77,4.77 0.001,2.63 -2.139,4.771 -4.77,4.771 z"/>
      <path id="vl112" fill="#054b87" stroke="#054b87" d="m 68.271,84.357 c -2.632,0 -4.771,-2.14 -4.771,-4.771 0,-2.63 2.14,-4.771 4.771,-4.771 2.63,0 4.769,2.14 4.769,4.771 -0.001,2.631 -2.14,4.771 -4.769,4.771 z"/>
      <path id="vl113" fill="#054b87" stroke="#054b87" d="m 92.33,103.745 c -2.632,0 -4.771,-2.139 -4.771,-4.771 0,-2.629 2.14,-4.77 4.771,-4.77 2.63,0 4.771,2.141 4.771,4.77 0,2.631 -2.141,4.771 -4.771,4.771 z"/>
      <path id="vl114" fill="#054b87" stroke="#054b87" d="m 127.872,133.492 c -2.629,0 -4.77,-2.142 -4.77,-4.773 0,-2.628 2.141,-4.769 4.77,-4.769 2.631,0 4.771,2.14 4.771,4.769 0.001,2.631 -2.139,4.773 -4.771,4.773 z"/>
      <path id="vl115" fill="#054b87" stroke="#054b87" d="m 84.328,89.877 c -2.63,0 -4.77,-2.139 -4.77,-4.77 0,-2.632 2.14,-4.771 4.77,-4.771 2.631,0 4.771,2.139 4.771,4.771 0,2.63 -2.14,4.77 -4.771,4.77 z"/>
      <path id="vl116" fill="#054b87" stroke="#054b87" d="m 119.955,119.651 c -2.63,0 -4.771,-2.141 -4.771,-4.771 0,-2.63 2.141,-4.771 4.771,-4.771 2.631,0 4.771,2.14 4.771,4.771 0,2.631 -2.141,4.771 -4.771,4.771 z"/>
      <path id="vl117" fill="#054b87" stroke="#054b87" d="m 163.54,163.249 c -2.629,0 -4.77,-2.139 -4.77,-4.768 0,-2.631 2.14,-4.771 4.77,-4.771 2.631,0 4.771,2.139 4.771,4.771 0,2.629 -2.14,4.768 -4.771,4.768 z"/>
      <path id="vl118" fill="#054b87" stroke="#054b87" d="m 79.156,73.403 c -2.632,0 -4.771,-2.141 -4.771,-4.771 0,-2.631 2.139,-4.771 4.771,-4.771 2.63,0 4.771,2.14 4.771,4.771 -0.001,2.63 -2.141,4.771 -4.771,4.771 z"/>
      <path id="vl119" fill="#054b87" stroke="#054b87" d="m 112.063,105.908 c -2.63,0 -4.77,-2.141 -4.77,-4.771 0,-2.63 2.139,-4.77 4.77,-4.77 2.631,0 4.771,2.139 4.771,4.77 0,2.63 -2.14,4.771 -4.771,4.771 z"/>
      <path id="vl120" fill="#054b87" stroke="#054b87" d="m 104.215,92.22 c -2.631,0 -4.771,-2.14 -4.771,-4.77 0,-2.631 2.139,-4.771 4.771,-4.771 2.63,0 4.77,2.139 4.77,4.771 -0.001,2.63 -2.14,4.77 -4.77,4.77 z"/>
      <path id="vl121" fill="#054b87" stroke="#054b87" d="m 155.733,149.493 c -2.63,0 -4.77,-2.139 -4.77,-4.77 0,-2.629 2.14,-4.769 4.77,-4.769 2.631,0 4.771,2.14 4.771,4.769 -0.001,2.631 -2.14,4.77 -4.771,4.77 z"/>
      <path id="vl122" fill="#054b87" stroke="#054b87" d="m 96.379,78.588 c -2.63,0 -4.771,-2.139 -4.771,-4.769 0,-2.632 2.141,-4.771 4.771,-4.771 2.631,0 4.771,2.139 4.771,4.771 0,2.63 -2.139,4.769 -4.771,4.769 z"/>
      <path id="vl123" fill="#054b87" stroke="#054b87" d="m 147.954,135.849 c -2.631,0 -4.771,-2.14 -4.771,-4.771 0,-2.63 2.14,-4.769 4.771,-4.769 2.63,0 4.77,2.139 4.77,4.769 0,2.63 -2.141,4.771 -4.77,4.771 z"/>
      <path id="vl124" fill="#054b87" stroke="#054b87" d="m 90.735,63.182 c -2.63,0 -4.77,-2.141 -4.77,-4.771 0,-2.63 2.14,-4.771 4.77,-4.771 2.631,0 4.771,2.14 4.771,4.771 -0.001,2.631 -2.14,4.771 -4.771,4.771 z"/>
      <path id="vl125" fill="#054b87" stroke="#054b87" d="m 140.201,122.243 c -2.63,0 -4.77,-2.14 -4.77,-4.77 0,-2.63 2.14,-4.771 4.77,-4.771 2.631,0 4.771,2.141 4.771,4.771 -0.001,2.63 -2.141,4.77 -4.771,4.77 z"/>
      <path id="vl126" fill="#054b87" stroke="#054b87" d="m 132.449,108.695 c -2.631,0 -4.77,-2.14 -4.77,-4.77 0,-2.631 2.139,-4.771 4.77,-4.771 2.631,0 4.77,2.139 4.77,4.771 0.001,2.63 -2.139,4.77 -4.77,4.77 z"/>
      <path id="vl127" fill="#054b87" stroke="#054b87" d="m 124.71,95.188 c -2.63,0 -4.77,-2.14 -4.77,-4.771 0,-2.632 2.14,-4.77 4.77,-4.77 2.631,0 4.771,2.138 4.771,4.77 0.001,2.631 -2.139,4.771 -4.771,4.771 z"/>
      <path id="vl128" fill="#054b87" stroke="#054b87" d="m 116.987,81.695 c -2.632,0 -4.771,-2.14 -4.771,-4.77 0,-2.631 2.14,-4.771 4.771,-4.771 2.63,0 4.769,2.139 4.769,4.771 0,2.63 -2.139,4.77 -4.769,4.77 z"/>
      <path id="vl129" fill="#054b87" stroke="#054b87" d="m 109.263,68.229 c -2.632,0 -4.771,-2.139 -4.771,-4.771 0,-2.63 2.14,-4.771 4.771,-4.771 2.631,0 4.771,2.141 4.771,4.771 -0.001,2.632 -2.14,4.771 -4.771,4.771 z"/>
      <path id="vl130" fill="#054b87" stroke="#054b87" d="m 102.953,53.752 c -2.631,0 -4.771,-2.14 -4.771,-4.771 0,-2.63 2.14,-4.77 4.771,-4.77 2.63,0 4.77,2.139 4.77,4.77 0,2.631 -2.141,4.771 -4.77,4.771 z"/>
      <path id="vl131" fill="#054b87" stroke="#054b87" d="m 176.673,152.587 c -2.631,0 -4.77,-2.14 -4.77,-4.771 0,-2.631 2.139,-4.771 4.77,-4.771 2.63,0 4.77,2.14 4.77,4.771 0,2.631 -2.139,4.771 -4.77,4.771 z"/>
      <path id="vl132" fill="#054b87" stroke="#054b87" d="m 169.004,139.163 c -2.631,0 -4.771,-2.14 -4.771,-4.77 0,-2.63 2.14,-4.77 4.771,-4.77 2.63,0 4.77,2.14 4.77,4.77 0,2.63 -2.14,4.77 -4.77,4.77 z"/>
      <path id="vl133" fill="#054b87" stroke="#054b87" d="m 161.321,125.767 c -2.631,0 -4.771,-2.14 -4.771,-4.772 0,-2.63 2.14,-4.77 4.771,-4.77 2.63,0 4.771,2.14 4.771,4.77 10e-4,2.632 -2.141,4.772 -4.771,4.772 z"/>
      <path id="vl134" fill="#054b87" stroke="#054b87" d="m 153.639,112.37 c -2.632,0 -4.771,-2.14 -4.771,-4.771 0,-2.63 2.14,-4.771 4.771,-4.771 2.631,0 4.771,2.141 4.771,4.771 0,2.631 -2.14,4.771 -4.771,4.771 z"/>
      <path id="vl135" fill="#054b87" stroke="#054b87" d="m 145.956,98.988 c -2.63,0 -4.771,-2.14 -4.771,-4.771 0,-2.631 2.141,-4.771 4.771,-4.771 2.632,0 4.771,2.141 4.771,4.771 0,2.63 -2.139,4.771 -4.771,4.771 z"/>
      <path id="vl136" fill="#054b87" stroke="#054b87" d="m 138.26,85.605 c -2.631,0 -4.771,-2.139 -4.771,-4.771 0,-2.63 2.14,-4.771 4.771,-4.771 2.63,0 4.77,2.14 4.77,4.771 -0.001,2.632 -2.14,4.771 -4.77,4.771 z"/>
      <path id="vl137" fill="#054b87" stroke="#054b87" d="m 130.564,72.236 c -2.631,0 -4.771,-2.139 -4.771,-4.77 0,-2.63 2.14,-4.771 4.771,-4.771 2.63,0 4.769,2.14 4.769,4.771 0,2.631 -2.139,4.77 -4.769,4.77 z"/>
      <path id="vl138" fill="#054b87" stroke="#054b87" d="m 122.866,58.869 c -2.63,0 -4.77,-2.139 -4.77,-4.77 0,-2.63 2.14,-4.771 4.77,-4.771 2.632,0 4.771,2.141 4.771,4.771 0,2.63 -2.14,4.77 -4.771,4.77 z"/>
      <path id="vl139" fill="#054b87" stroke="#054b87" d="m 115.767,45.139 c -2.631,0 -4.771,-2.139 -4.771,-4.771 0,-2.63 2.14,-4.77 4.771,-4.77 2.63,0 4.77,2.14 4.77,4.77 0,2.632 -2.141,4.771 -4.77,4.771 z"/>
      <path id="vl140" fill="#054b87" stroke="#054b87" d="m 129.122,37.388 c -2.632,0 -4.771,-2.141 -4.771,-4.771 0,-2.63 2.14,-4.77 4.771,-4.77 2.63,0 4.769,2.14 4.769,4.77 0,2.63 -2.14,4.771 -4.769,4.771 z"/>
      <path id="vl141" fill="#054b87" stroke="#054b87" d="m 137.15,50.562 c -2.631,0 -4.771,-2.141 -4.771,-4.771 0,-2.63 2.14,-4.771 4.771,-4.771 2.63,0 4.77,2.14 4.77,4.771 0,2.63 -2.139,4.771 -4.77,4.771 z" style="fill:#4d4d4d;stroke:#4d4d4d;stroke-opacity:1;fill-opacity:1"/>
      <path id="vl142" fill="#054b87" stroke="#054b87" d="m 144.874,63.917 c -2.63,0 -4.77,-2.14 -4.77,-4.771 0,-2.631 2.14,-4.77 4.77,-4.77 2.631,0 4.771,2.139 4.771,4.77 0,2.63 -2.14,4.771 -4.771,4.771 z"/>
      <path id="vl143" fill="#054b87" stroke="#054b87" d="m 152.585,77.271 c -2.631,0 -4.771,-2.139 -4.771,-4.771 0,-2.631 2.14,-4.771 4.771,-4.771 2.63,0 4.77,2.14 4.77,4.771 0,2.632 -2.14,4.771 -4.77,4.771 z"/>
      <path id="vl144" fill="#054b87" stroke="#054b87" d="m 160.309,90.612 c -2.63,0 -4.77,-2.14 -4.77,-4.771 0,-2.631 2.14,-4.771 4.77,-4.771 2.632,0 4.771,2.141 4.771,4.771 0,2.63 -2.14,4.771 -4.771,4.771 z"/>
      <path id="vl145" fill="#054b87" stroke="#054b87" d="m 168.047,103.966 c -2.63,0 -4.77,-2.139 -4.77,-4.771 0,-2.631 2.14,-4.771 4.77,-4.771 2.631,0 4.771,2.139 4.771,4.771 0,2.632 -2.14,4.771 -4.771,4.771 z"/>
      <path id="vl146" fill="#054b87" stroke="#054b87" d="m 175.771,117.321 c -2.63,0 -4.771,-2.141 -4.771,-4.771 0,-2.63 2.142,-4.771 4.771,-4.771 2.631,0 4.771,2.14 4.771,4.771 0,2.631 -2.139,4.771 -4.771,4.771 z"/>
      <path id="vl147" fill="#054b87" stroke="#054b87" d="m 183.51,130.674 c -2.632,0 -4.771,-2.139 -4.771,-4.769 0,-2.63 2.139,-4.769 4.771,-4.769 2.63,0 4.771,2.139 4.771,4.769 0,2.631 -2.141,4.769 -4.771,4.769 z"/>
      <path id="vl148" fill="#054b87" stroke="#054b87" d="m 191.262,144.031 c -2.63,0 -4.77,-2.141 -4.77,-4.771 0,-2.632 2.14,-4.772 4.77,-4.772 2.631,0 4.771,2.14 4.771,4.772 0,2.63 -2.14,4.771 -4.771,4.771 z"/>
      <path id="vl149" fill="#054b87" stroke="#054b87" d="m 142.96,30.536 c -2.63,0 -4.77,-2.139 -4.77,-4.77 0,-2.63 2.14,-4.771 4.77,-4.771 2.632,0 4.771,2.141 4.771,4.771 0,2.631 -2.139,4.77 -4.771,4.77 z"/>
      <path id="vl150" fill="#054b87" stroke="#054b87" d="m 152.016,43.365 c -2.631,0 -4.77,-2.141 -4.77,-4.771 0,-2.631 2.139,-4.771 4.77,-4.771 2.63,0 4.77,2.139 4.77,4.771 0,2.63 -2.14,4.771 -4.77,4.771 z"/>
      <path id="vl151" fill="#054b87" stroke="#054b87" d="m 159.797,56.774 c -2.631,0 -4.771,-2.139 -4.771,-4.77 0,-2.631 2.14,-4.769 4.771,-4.769 2.629,0 4.77,2.139 4.77,4.769 -0.001,2.631 -2.141,4.77 -4.77,4.77 z"/>
      <path id="vl152" fill="#054b87" stroke="#054b87" d="m 167.604,70.212 c -2.631,0 -4.771,-2.139 -4.771,-4.769 0,-2.632 2.14,-4.771 4.771,-4.771 2.63,0 4.77,2.139 4.77,4.771 0,2.63 -2.14,4.769 -4.77,4.769 z"/>
      <path id="vl153" fill="#054b87" stroke="#054b87" d="m 175.411,83.649 c -2.631,0 -4.771,-2.139 -4.771,-4.771 0,-2.63 2.14,-4.77 4.771,-4.77 2.63,0 4.77,2.139 4.77,4.77 0,2.632 -2.14,4.771 -4.77,4.771 z"/>
      <path id="vl154" fill="#054b87" stroke="#054b87" d="m 183.246,97.129 c -2.63,0 -4.77,-2.14 -4.77,-4.771 0,-2.631 2.14,-4.771 4.77,-4.771 2.631,0 4.771,2.14 4.771,4.771 0,2.631 -2.14,4.771 -4.771,4.771 z"/>
      <path id="vl155" fill="#054b87" stroke="#054b87" d="m 157.217,24.602 c -2.631,0 -4.771,-2.141 -4.771,-4.772 0,-2.629 2.14,-4.769 4.771,-4.769 2.63,0 4.77,2.14 4.77,4.769 0,2.631 -2.14,4.772 -4.77,4.772 z"/>
      <path id="vl156" fill="#054b87" stroke="#054b87" d="m 191.109,110.622 c -2.63,0 -4.77,-2.139 -4.77,-4.77 0,-2.63 2.14,-4.771 4.77,-4.771 2.631,0 4.77,2.14 4.77,4.771 0,2.631 -2.139,4.77 -4.77,4.77 z"/>
      <path id="vl157" fill="#054b87" stroke="#054b87" d="m 167.382,37.291 c -2.631,0 -4.771,-2.141 -4.771,-4.771 0,-2.629 2.139,-4.77 4.771,-4.77 2.63,0 4.77,2.141 4.77,4.77 -10e-4,2.63 -2.14,4.771 -4.77,4.771 z"/>
      <path id="vl158" fill="#054b87" stroke="#054b87" d="m 199.013,124.172 c -2.63,0 -4.769,-2.14 -4.769,-4.769 0,-2.632 2.139,-4.771 4.769,-4.771 2.632,0 4.771,2.139 4.771,4.771 0.001,2.629 -2.139,4.769 -4.771,4.769 z"/>
      <path id="vl159" fill="#054b87" stroke="#054b87" d="m 175.258,50.867 c -2.63,0 -4.77,-2.14 -4.77,-4.771 0,-2.63 2.14,-4.771 4.77,-4.771 2.631,0 4.771,2.14 4.771,4.771 0.001,2.631 -2.139,4.771 -4.771,4.771 z"/>
      <path id="vl160" fill="#054b87" stroke="#054b87" d="m 183.177,64.499 c -2.63,0 -4.77,-2.141 -4.77,-4.771 0,-2.63 2.14,-4.77 4.77,-4.77 2.631,0 4.771,2.14 4.771,4.77 0,2.63 -2.14,4.771 -4.771,4.771 z"/>
      <path id="vl161" fill="#054b87" stroke="#054b87" d="m 206.974,137.776 c -2.63,0 -4.771,-2.139 -4.771,-4.769 0,-2.63 2.141,-4.771 4.771,-4.771 2.632,0 4.771,2.14 4.771,4.771 0,2.63 -2.14,4.769 -4.771,4.769 z"/>
      <path id="vl162" fill="#054b87" stroke="#054b87" d="m 171.833,19.609 c -2.631,0 -4.771,-2.139 -4.771,-4.771 0,-2.63 2.14,-4.77 4.771,-4.77 2.63,0 4.77,2.139 4.77,4.77 0.001,2.632 -2.14,4.771 -4.77,4.771 z"/>
      <path id="vl163" fill="#054b87" stroke="#054b87" d="m 191.109,78.172 c -2.63,0 -4.77,-2.14 -4.77,-4.77 0,-2.632 2.14,-4.771 4.77,-4.771 2.631,0 4.77,2.139 4.77,4.771 0,2.631 -2.139,4.77 -4.77,4.77 z"/>
      <path id="vl164" fill="#054b87" stroke="#054b87" d="m 199.098,91.929 c -2.632,0 -4.771,-2.139 -4.771,-4.769 0,-2.632 2.14,-4.771 4.771,-4.771 2.63,0 4.769,2.139 4.769,4.771 0,2.63 -2.14,4.769 -4.769,4.769 z"/>
      <path id="vl165" fill="#054b87" stroke="#054b87" d="m 183.163,32.395 c -2.631,0 -4.771,-2.14 -4.771,-4.771 0,-2.63 2.14,-4.771 4.771,-4.771 2.63,0 4.771,2.14 4.771,4.771 0,2.631 -2.141,4.771 -4.771,4.771 z"/>
      <path id="vl166" fill="#054b87" stroke="#054b87" d="m 191.15,46.235 c -2.63,0 -4.77,-2.139 -4.77,-4.771 0,-2.631 2.14,-4.77 4.77,-4.77 2.632,0 4.771,2.139 4.771,4.77 0,2.632 -2.139,4.771 -4.771,4.771 z"/>
      <path id="vl167" fill="#054b87" stroke="#054b87" d="m 207.14,105.784 c -2.631,0 -4.771,-2.142 -4.771,-4.771 0,-2.631 2.14,-4.771 4.771,-4.771 2.63,0 4.77,2.139 4.77,4.771 0,2.629 -2.14,4.771 -4.77,4.771 z"/>
      <path id="vl168" fill="#054b87" stroke="#054b87" d="m 186.741,15.601 c -2.632,0 -4.771,-2.14 -4.771,-4.771 0,-2.629 2.139,-4.77 4.771,-4.77 2.63,0 4.77,2.14 4.77,4.77 0,2.631 -2.14,4.771 -4.77,4.771 z"/>
      <path id="vl169" fill="#054b87" stroke="#054b87" d="m 199.18,60.172 c -2.629,0 -4.77,-2.14 -4.77,-4.771 0,-2.63 2.14,-4.77 4.77,-4.77 2.632,0 4.771,2.139 4.771,4.77 0,2.632 -2.14,4.771 -4.771,4.771 z"/>
      <path id="vl170" fill="#054b87" stroke="#054b87" d="m 215.252,119.762 c -2.629,0 -4.769,-2.141 -4.769,-4.771 0,-2.63 2.14,-4.77 4.769,-4.77 2.632,0 4.771,2.14 4.771,4.77 0,2.631 -2.139,4.771 -4.771,4.771 z"/>
      <path id="vl171" fill="#054b87" stroke="#054b87" d="m 207.265,74.22 c -2.63,0 -4.769,-2.139 -4.769,-4.77 0,-2.631 2.139,-4.771 4.769,-4.771 2.632,0 4.771,2.139 4.771,4.771 0,2.631 -2.14,4.77 -4.771,4.77 z"/>
      <path id="vl172" fill="#054b87" stroke="#054b87" d="m 199.264,28.692 c -2.632,0 -4.771,-2.139 -4.771,-4.769 0,-2.632 2.139,-4.771 4.771,-4.771 2.63,0 4.769,2.139 4.769,4.771 0,2.63 -2.139,4.769 -4.769,4.769 z"/>
      <path id="vl173" fill="#054b87" stroke="#054b87" d="m 201.884,12.578 c -2.631,0 -4.771,-2.14 -4.771,-4.771 0,-2.63 2.139,-4.769 4.771,-4.769 2.63,0 4.771,2.14 4.771,4.769 0,2.631 -2.14,4.771 -4.771,4.771 z"/>
      <path id="vl174" fill="#054b87" stroke="#054b87" d="m 207.362,42.907 c -2.631,0 -4.771,-2.141 -4.771,-4.77 0,-2.631 2.139,-4.771 4.771,-4.771 2.63,0 4.77,2.139 4.77,4.771 0,2.629 -2.139,4.77 -4.77,4.77 z"/>
      <path id="vl175" fill="#054b87" stroke="#054b87" d="m 215.406,88.434 c -2.632,0 -4.771,-2.14 -4.771,-4.77 0,-2.632 2.14,-4.771 4.771,-4.771 2.629,0 4.77,2.14 4.77,4.771 0,2.63 -2.141,4.77 -4.77,4.77 z"/>
      <path id="vl176" fill="#054b87" stroke="#054b87" d="m 223.462,133.963 c -2.63,0 -4.77,-2.14 -4.77,-4.77 0,-2.63 2.14,-4.77 4.77,-4.77 2.631,0 4.77,2.139 4.77,4.77 0.001,2.63 -2.139,4.77 -4.77,4.77 z"/>
      <path id="vl177" fill="#054b87" stroke="#054b87" d="m 215.516,57.273 c -2.631,0 -4.77,-2.139 -4.77,-4.771 0,-2.631 2.14,-4.77 4.77,-4.77 2.63,0 4.77,2.139 4.77,4.77 0,2.632 -2.14,4.771 -4.77,4.771 z"/>
      <path id="vl178" fill="#054b87" stroke="#054b87" d="m 223.615,102.844 c -2.63,0 -4.771,-2.141 -4.771,-4.771 0,-2.63 2.142,-4.771 4.771,-4.771 2.631,0 4.771,2.141 4.771,4.771 0,2.63 -2.14,4.771 -4.771,4.771 z"/>
      <path id="vl179" fill="#054b87" stroke="#054b87" d="m 220.357,21.44 c 0,2.63 -2.14,4.771 -4.771,4.771 -2.63,0 -4.77,-2.141 -4.77,-4.771 0,-2.632 2.14,-4.771 4.77,-4.771 2.631,0 4.771,2.139 4.771,4.771"/>
      <path id="vl180" fill="#054b87" stroke="#054b87" d="m 217.194,10.554 c -2.632,0 -4.771,-2.141 -4.771,-4.771 0,-2.631 2.139,-4.771 4.771,-4.771 2.63,0 4.77,2.14 4.77,4.771 0,2.63 -2.14,4.771 -4.77,4.771 z"/>
      <path id="vl181" fill="#054b87" stroke="#054b87" d="m 223.712,71.834 c -2.631,0 -4.771,-2.139 -4.771,-4.77 0,-2.63 2.14,-4.771 4.771,-4.771 2.63,0 4.77,2.14 4.77,4.771 0,2.631 -2.14,4.77 -4.77,4.77 z"/>
      <path id="vl182" fill="#054b87" stroke="#054b87" d="m 223.795,40.896 c -2.63,0 -4.77,-2.14 -4.77,-4.771 0,-2.631 2.14,-4.771 4.77,-4.771 2.632,0 4.771,2.139 4.771,4.771 0,2.631 -2.139,4.771 -4.771,4.771 z"/>
      <path id="vl183" fill="#054b87" stroke="#054b87" d="m 231.922,117.543 c -2.631,0 -4.771,-2.14 -4.771,-4.771 0,-2.631 2.141,-4.771 4.771,-4.771 2.63,0 4.77,2.14 4.77,4.771 0,2.631 -2.14,4.771 -4.77,4.771 z"/>
      <path id="vl184" fill="#054b87" stroke="#054b87" d="m 231.991,86.673 c -2.631,0 -4.771,-2.14 -4.771,-4.771 0,-2.631 2.14,-4.771 4.771,-4.771 2.631,0 4.771,2.14 4.771,4.771 0,2.631 -2.14,4.771 -4.771,4.771 z"/>
      <path id="vl185" fill="#054b87" stroke="#054b87" d="m 232.033,55.819 c -2.631,0 -4.771,-2.141 -4.771,-4.771 0,-2.631 2.141,-4.771 4.771,-4.771 2.63,0 4.77,2.139 4.77,4.771 0,2.63 -2.14,4.771 -4.77,4.771 z"/>
      <path id="vl186" fill="#054b87" stroke="#054b87" d="m 232.06,24.977 c -2.629,0 -4.77,-2.141 -4.77,-4.769 0,-2.632 2.141,-4.772 4.77,-4.772 2.631,0 4.771,2.139 4.771,4.772 0,2.628 -2.14,4.769 -4.771,4.769 z"/>
      <path id="vl187" fill="#054b87" stroke="#054b87" d="m 232.602,9.542 c -2.631,0 -4.771,-2.14 -4.771,-4.771 0,-2.631 2.14,-4.771 4.771,-4.771 2.63,0 4.77,2.141 4.77,4.771 0,2.63 -2.14,4.771 -4.77,4.771 z"/>
      <path id="vl188" fill="#054b87" stroke="#054b87" d="m 240.326,40.231 c -2.63,0 -4.77,-2.141 -4.77,-4.77 0,-2.631 2.14,-4.77 4.77,-4.77 2.629,0 4.769,2.139 4.769,4.77 0,2.629 -2.14,4.77 -4.769,4.77 z"/>
      <path id="vl189" fill="#054b87" stroke="#054b87" d="m 240.326,71.044 c -2.63,0 -4.77,-2.139 -4.77,-4.771 0,-2.631 2.14,-4.77 4.77,-4.77 2.629,0 4.769,2.139 4.769,4.77 0,2.632 -2.14,4.771 -4.769,4.771 z"/>
      <path id="vl190" fill="#054b87" stroke="#054b87" d="m 240.326,101.859 c -2.63,0 -4.77,-2.141 -4.77,-4.771 0,-2.63 2.14,-4.771 4.77,-4.771 2.629,0 4.769,2.14 4.769,4.771 0,2.631 -2.14,4.771 -4.769,4.771 z"/>
      <path id="vl191" fill="#054b87" stroke="#054b87" d="m 240.326,132.672 c -2.63,0 -4.77,-2.139 -4.77,-4.771 0,-2.629 2.14,-4.769 4.77,-4.769 2.629,0 4.769,2.14 4.769,4.769 0,2.632 -2.14,4.771 -4.769,4.771 z"/>
      <path id="vl192" fill="#054b87" stroke="#054b87" d="m 248.05,9.542 c -2.632,0 -4.771,-2.14 -4.771,-4.771 0,-2.631 2.139,-4.771 4.771,-4.771 2.628,0 4.768,2.141 4.768,4.771 0,2.63 -2.138,4.771 -4.768,4.771 z"/>
      <path id="vl193" fill="#054b87" stroke="#054b87" d="m 248.59,24.977 c -2.631,0 -4.771,-2.141 -4.771,-4.769 0,-2.632 2.14,-4.772 4.771,-4.772 2.631,0 4.771,2.139 4.771,4.772 0,2.628 -2.139,4.769 -4.771,4.769 z"/>
      <path id="vl194" fill="#054b87" stroke="#054b87" d="m 248.619,55.819 c -2.631,0 -4.771,-2.141 -4.771,-4.771 0,-2.631 2.14,-4.771 4.771,-4.771 2.629,0 4.769,2.139 4.769,4.771 -0.001,2.63 -2.139,4.771 -4.769,4.771 z"/>
      <path id="vl195" fill="#054b87" stroke="#054b87" d="m 248.659,86.673 c -2.629,0 -4.77,-2.14 -4.77,-4.771 0,-2.631 2.14,-4.771 4.77,-4.771 2.631,0 4.771,2.14 4.771,4.771 0.001,2.631 -2.14,4.771 -4.771,4.771 z"/>
      <path id="vl196" fill="#054b87" stroke="#054b87" d="m 248.73,117.543 c -2.63,0 -4.77,-2.14 -4.77,-4.771 0,-2.631 2.14,-4.771 4.77,-4.771 2.63,0 4.77,2.14 4.77,4.771 0,2.631 -2.14,4.771 -4.77,4.771 z"/>
      <path id="vl197" fill="#054b87" stroke="#054b87" d="m 263.456,10.554 c -2.628,0 -4.768,-2.141 -4.768,-4.771 0,-2.631 2.14,-4.771 4.768,-4.771 2.632,0 4.771,2.14 4.771,4.771 0,2.63 -2.139,4.771 -4.771,4.771 z"/>
      <path id="vl198" fill="#054b87" stroke="#054b87" d="m 265.065,26.211 c -2.629,0 -4.77,-2.141 -4.77,-4.771 0,-2.632 2.141,-4.771 4.77,-4.771 2.63,0 4.77,2.139 4.77,4.771 0,2.63 -2.14,4.771 -4.77,4.771 z"/>
      <path id="vl199" fill="#054b87" stroke="#054b87" d="m 257.035,102.844 c -2.631,0 -4.771,-2.141 -4.771,-4.771 0,-2.63 2.14,-4.771 4.771,-4.771 2.631,0 4.772,2.141 4.772,4.771 0,2.63 -2.14,4.771 -4.772,4.771 z"/>
      <path id="vl200" fill="#054b87" stroke="#054b87" d="m 265.136,57.273 c -2.631,0 -4.77,-2.139 -4.77,-4.771 0,-2.631 2.139,-4.77 4.77,-4.77 2.629,0 4.77,2.139 4.77,4.77 -0.001,2.632 -2.141,4.771 -4.77,4.771 z"/>
      <path id="vl201" fill="#054b87" stroke="#054b87" d="m 257.189,133.963 c -2.63,0 -4.77,-2.14 -4.77,-4.77 0,-2.63 2.14,-4.77 4.77,-4.77 2.63,0 4.77,2.139 4.77,4.77 -10e-4,2.63 -2.14,4.77 -4.77,4.77 z"/>
      <path id="vl202" fill="#054b87" stroke="#054b87" d="m 265.246,88.434 c -2.63,0 -4.772,-2.14 -4.772,-4.77 0,-2.632 2.142,-4.771 4.772,-4.771 2.63,0 4.77,2.14 4.77,4.771 0,2.63 -2.14,4.77 -4.77,4.77 z"/>
      <path id="vl203" fill="#054b87" stroke="#054b87" d="m 273.288,42.907 c -2.629,0 -4.769,-2.141 -4.769,-4.77 0,-2.631 2.14,-4.771 4.769,-4.771 2.631,0 4.771,2.139 4.771,4.771 0,2.629 -2.14,4.77 -4.771,4.77 z"/>
      <path id="vl204" fill="#054b87" stroke="#054b87" d="m 278.768,12.578 c -2.63,0 -4.773,-2.14 -4.773,-4.771 0,-2.63 2.142,-4.769 4.773,-4.769 2.63,0 4.77,2.14 4.77,4.769 -0.001,2.631 -2.141,4.771 -4.77,4.771 z"/>
      <path id="vl205" fill="#054b87" stroke="#054b87" d="m 281.386,28.692 c -2.629,0 -4.769,-2.139 -4.769,-4.769 0,-2.632 2.14,-4.771 4.769,-4.771 2.63,0 4.77,2.139 4.77,4.771 0,2.63 -2.138,4.769 -4.77,4.769 z"/>
      <path id="vl206" fill="#054b87" stroke="#054b87" d="m 273.386,74.22 c -2.63,0 -4.77,-2.139 -4.77,-4.77 0,-2.631 2.14,-4.771 4.77,-4.771 2.63,0 4.769,2.139 4.769,4.771 0,2.631 -2.139,4.77 -4.769,4.77 z"/>
      <path id="vl207" fill="#054b87" stroke="#054b87" d="m 265.398,119.762 c -2.63,0 -4.77,-2.141 -4.77,-4.771 0,-2.63 2.14,-4.77 4.77,-4.77 2.63,0 4.769,2.14 4.769,4.77 0.001,2.631 -2.139,4.771 -4.769,4.771 z"/>
      <path id="vl208" fill="#054b87" stroke="#054b87" d="m 281.471,60.172 c -2.63,0 -4.77,-2.14 -4.77,-4.771 0,-2.63 2.14,-4.77 4.77,-4.77 2.63,0 4.77,2.139 4.77,4.77 -10e-4,2.632 -2.14,4.771 -4.77,4.771 z"/>
      <path id="vl209" fill="#054b87" stroke="#054b87" d="m 293.911,15.601 c -2.63,0 -4.769,-2.14 -4.769,-4.771 0,-2.629 2.139,-4.77 4.769,-4.77 2.63,0 4.77,2.14 4.77,4.77 0,2.631 -2.14,4.771 -4.77,4.771 z"/>
      <path id="vl210" fill="#054b87" stroke="#054b87" d="m 273.51,105.784 c -2.628,0 -4.768,-2.142 -4.768,-4.771 0,-2.631 2.14,-4.771 4.768,-4.771 2.631,0 4.771,2.139 4.771,4.771 0,2.629 -2.139,4.771 -4.771,4.771 z"/>
      <path id="vl211" fill="#054b87" stroke="#054b87" d="m 289.5,46.235 c -2.632,0 -4.771,-2.139 -4.771,-4.771 0,-2.631 2.139,-4.77 4.771,-4.77 2.631,0 4.771,2.139 4.771,4.77 0,2.632 -2.14,4.771 -4.771,4.771 z"/>
      <path id="vl212" fill="#054b87" stroke="#054b87" d="m 297.489,32.395 c -2.631,0 -4.773,-2.14 -4.773,-4.771 0,-2.63 2.142,-4.771 4.773,-4.771 2.629,0 4.769,2.14 4.769,4.771 0,2.631 -2.139,4.771 -4.769,4.771 z"/>
      <path id="vl213" fill="#054b87" stroke="#054b87" d="m 281.554,91.929 c -2.631,0 -4.771,-2.139 -4.771,-4.769 0,-2.632 2.14,-4.771 4.771,-4.771 2.629,0 4.768,2.139 4.768,4.771 10e-4,2.63 -2.137,4.769 -4.768,4.769 z"/>
      <path id="vl214" fill="#054b87" stroke="#054b87" d="m 289.542,78.172 c -2.631,0 -4.771,-2.14 -4.771,-4.77 0,-2.632 2.14,-4.771 4.771,-4.771 2.63,0 4.77,2.139 4.77,4.771 -0.001,2.631 -2.14,4.77 -4.77,4.77 z"/>
      <path id="vl215" fill="#054b87" stroke="#054b87" d="m 308.818,19.609 c -2.63,0 -4.77,-2.139 -4.77,-4.771 0,-2.63 2.14,-4.77 4.77,-4.77 2.63,0 4.77,2.139 4.77,4.77 0,2.632 -2.139,4.771 -4.77,4.771 z"/>
      <path id="vl216" fill="#054b87" stroke="#054b87" d="m 297.474,64.499 c -2.631,0 -4.771,-2.141 -4.771,-4.771 0,-2.63 2.14,-4.77 4.771,-4.77 2.631,0 4.771,2.14 4.771,4.77 0,2.63 -2.14,4.771 -4.771,4.771 z"/>
      <path id="vl217" fill="#054b87" stroke="#054b87" d="m 305.392,50.867 c -2.63,0 -4.769,-2.14 -4.769,-4.771 0,-2.63 2.139,-4.771 4.769,-4.771 2.63,0 4.77,2.14 4.77,4.771 0,2.631 -2.14,4.771 -4.77,4.771 z"/>
      <path id="vl218" fill="#054b87" stroke="#054b87" d="m 281.637,124.172 c -2.632,0 -4.771,-2.14 -4.771,-4.769 0,-2.632 2.139,-4.771 4.771,-4.771 2.631,0 4.771,2.139 4.771,4.771 0,2.629 -2.14,4.769 -4.771,4.769 z"/>
      <path id="vl219" fill="#054b87" stroke="#054b87" d="m 273.677,137.775 c -2.632,0 -4.771,-2.14 -4.771,-4.769 0,-2.632 2.139,-4.771 4.771,-4.771 2.631,0 4.771,2.139 4.771,4.771 -10e-4,2.629 -2.14,4.769 -4.771,4.769 z"/>
      <path id="vl220" fill="#054b87" stroke="#054b87" d="m 313.268,37.291 c -2.629,0 -4.768,-2.141 -4.768,-4.771 0,-2.629 2.14,-4.77 4.768,-4.77 2.631,0 4.771,2.141 4.771,4.77 0,2.63 -2.139,4.771 -4.771,4.771 z"/>
      <path id="vl221" fill="#054b87" stroke="#054b87" d="m 289.542,110.622 c -2.631,0 -4.771,-2.139 -4.771,-4.77 0,-2.63 2.14,-4.771 4.771,-4.771 2.63,0 4.77,2.14 4.77,4.771 -0.001,2.631 -2.14,4.77 -4.77,4.77 z"/>
      <path id="vl222" fill="#054b87" stroke="#054b87" d="m 323.434,24.602 c -2.628,0 -4.769,-2.141 -4.769,-4.772 0,-2.629 2.141,-4.769 4.769,-4.769 2.631,0 4.772,2.14 4.772,4.769 -0.001,2.631 -2.141,4.772 -4.772,4.772 z"/>
      <path id="vl223" fill="#054b87" stroke="#054b87" d="m 297.405,97.129 c -2.63,0 -4.77,-2.14 -4.77,-4.771 0,-2.631 2.14,-4.771 4.77,-4.771 2.63,0 4.77,2.14 4.77,4.771 0,2.631 -2.14,4.771 -4.77,4.771 z"/>
      <path id="vl224" fill="#054b87" stroke="#054b87" d="m 305.241,83.649 c -2.63,0 -4.77,-2.139 -4.77,-4.771 0,-2.63 2.14,-4.77 4.77,-4.77 2.629,0 4.77,2.139 4.77,4.77 0,2.632 -2.141,4.771 -4.77,4.771 z"/>
      <path id="vl225" fill="#054b87" stroke="#054b87" d="m 313.047,70.212 c -2.63,0 -4.77,-2.139 -4.77,-4.769 0,-2.632 2.14,-4.771 4.77,-4.771 2.63,0 4.769,2.139 4.769,4.771 0,2.63 -2.138,4.769 -4.769,4.769 z"/>
      <path id="vl226" fill="#054b87" stroke="#054b87" d="m 343.501,50.562 c -2.632,0 -4.771,-2.141 -4.771,-4.771 0,-2.63 2.139,-4.771 4.771,-4.771 2.629,0 4.768,2.14 4.768,4.771 10e-4,2.63 -2.138,4.771 -4.768,4.771 z"/>
      <path id="vl227" fill="#054b87" stroke="#054b87" d="m 351.529,37.388 c -2.629,0 -4.769,-2.141 -4.769,-4.771 0,-2.63 2.14,-4.77 4.769,-4.77 2.63,0 4.77,2.14 4.77,4.77 0,2.63 -2.138,4.771 -4.77,4.771 z"/>
      <path id="vl228" fill="#054b87" stroke="#054b87" d="m 364.885,45.139 c -2.631,0 -4.771,-2.139 -4.771,-4.771 0,-2.63 2.14,-4.77 4.771,-4.77 2.628,0 4.768,2.14 4.768,4.77 0,2.632 -2.138,4.771 -4.768,4.771 z"/>
      <path id="vl229" fill="#054b87" stroke="#054b87" d="m 357.785,58.869 c -2.632,0 -4.771,-2.139 -4.771,-4.77 0,-2.63 2.14,-4.771 4.771,-4.771 2.631,0 4.771,2.141 4.771,4.771 0,2.63 -2.14,4.77 -4.771,4.77 z"/>
      <path id="vl230" fill="#054b87" stroke="#054b87" d="m 350.089,72.236 c -2.632,0 -4.771,-2.139 -4.771,-4.77 0,-2.63 2.14,-4.771 4.771,-4.771 2.628,0 4.768,2.14 4.768,4.771 -0.001,2.631 -2.139,4.77 -4.768,4.77 z"/>
      <path id="vl231" fill="#054b87" stroke="#054b87" d="m 342.391,85.605 c -2.629,0 -4.768,-2.139 -4.768,-4.771 0,-2.63 2.139,-4.771 4.768,-4.771 2.631,0 4.771,2.14 4.771,4.771 0,2.632 -2.14,4.771 -4.771,4.771 z"/>
      <path id="vl232" fill="#054b87" stroke="#054b87" d="m 334.694,98.988 c -2.631,0 -4.771,-2.14 -4.771,-4.771 0,-2.631 2.14,-4.771 4.771,-4.771 2.631,0 4.771,2.141 4.771,4.771 0,2.63 -2.139,4.771 -4.771,4.771 z"/>
      <path id="vl233" fill="#054b87" stroke="#054b87" d="m 327.012,112.37 c -2.63,0 -4.77,-2.14 -4.77,-4.771 0,-2.63 2.14,-4.771 4.77,-4.771 2.632,0 4.771,2.141 4.771,4.771 0,2.631 -2.14,4.771 -4.771,4.771 z"/>
      <path id="vl234" fill="#054b87" stroke="#054b87" d="m 319.331,125.767 c -2.63,0 -4.773,-2.14 -4.773,-4.772 0,-2.63 2.143,-4.77 4.773,-4.77 2.629,0 4.77,2.14 4.77,4.77 0,2.632 -2.141,4.772 -4.77,4.772 z"/>
      <path id="vl235" fill="#054b87" stroke="#054b87" d="m 311.647,139.163 c -2.629,0 -4.769,-2.14 -4.769,-4.77 0,-2.63 2.14,-4.77 4.769,-4.77 2.631,0 4.77,2.14 4.77,4.77 0,2.63 -2.139,4.77 -4.77,4.77 z"/>
      <path id="vl236" fill="#054b87" stroke="#054b87" d="m 303.978,152.587 c -2.632,0 -4.771,-2.14 -4.771,-4.771 0,-2.631 2.139,-4.771 4.771,-4.771 2.628,0 4.768,2.14 4.768,4.771 0.001,2.631 -2.138,4.771 -4.768,4.771 z"/>
      <path id="vl237" fill="#054b87" stroke="#054b87" d="m 377.699,53.752 c -2.63,0 -4.77,-2.14 -4.77,-4.771 0,-2.63 2.14,-4.77 4.77,-4.77 2.63,0 4.77,2.139 4.77,4.77 0,2.631 -2.14,4.771 -4.77,4.771 z"/>
      <path id="vl238" fill="#054b87" stroke="#054b87" d="m 371.389,68.229 c -2.629,0 -4.77,-2.139 -4.77,-4.771 0,-2.63 2.141,-4.771 4.77,-4.771 2.631,0 4.771,2.141 4.771,4.771 -0.001,2.632 -2.14,4.771 -4.771,4.771 z"/>
      <path id="vl239" fill="#054b87" stroke="#054b87" d="m 363.663,81.695 c -2.63,0 -4.769,-2.14 -4.769,-4.77 0,-2.631 2.139,-4.771 4.769,-4.771 2.631,0 4.77,2.139 4.77,4.771 0,2.63 -2.138,4.77 -4.77,4.77 z"/>
      <path id="vl240" fill="#054b87" stroke="#054b87" d="m 355.94,95.188 c -2.631,0 -4.771,-2.14 -4.771,-4.771 0,-2.632 2.139,-4.77 4.771,-4.77 2.632,0 4.771,2.138 4.771,4.77 0,2.631 -2.139,4.771 -4.771,4.771 z"/>
      <path id="vl241" fill="#054b87" stroke="#054b87" d="m 348.202,108.695 c -2.632,0 -4.771,-2.14 -4.771,-4.77 0,-2.631 2.14,-4.771 4.771,-4.771 2.631,0 4.771,2.139 4.771,4.771 0,2.63 -2.14,4.77 -4.771,4.77 z"/>
      <path id="vl242" fill="#054b87" stroke="#054b87" d="m 340.45,122.243 c -2.631,0 -4.771,-2.14 -4.771,-4.77 0,-2.63 2.14,-4.771 4.771,-4.771 2.631,0 4.771,2.141 4.771,4.771 0,2.63 -2.139,4.77 -4.771,4.77 z"/>
      <path id="vl243" fill="#054b87" stroke="#054b87" d="m 389.915,63.182 c -2.631,0 -4.771,-2.141 -4.771,-4.771 0,-2.63 2.14,-4.771 4.771,-4.771 2.632,0 4.772,2.14 4.772,4.771 0,2.631 -2.14,4.771 -4.772,4.771 z"/>
      <path id="vl244" fill="#054b87" stroke="#054b87" d="m 332.697,135.849 c -2.629,0 -4.77,-2.14 -4.77,-4.771 0,-2.63 2.141,-4.769 4.77,-4.769 2.63,0 4.77,2.139 4.77,4.769 0.001,2.63 -2.139,4.771 -4.77,4.771 z"/>
      <path id="vl245" fill="#054b87" stroke="#054b87" d="m 384.271,78.588 c -2.631,0 -4.771,-2.139 -4.771,-4.769 0,-2.632 2.139,-4.771 4.771,-4.771 2.632,0 4.772,2.139 4.772,4.771 0,2.63 -2.14,4.769 -4.772,4.769 z"/>
      <path id="vl246" fill="#054b87" stroke="#054b87" d="m 324.918,149.493 c -2.63,0 -4.77,-2.139 -4.77,-4.77 0,-2.629 2.14,-4.769 4.77,-4.769 2.629,0 4.769,2.14 4.769,4.769 10e-4,2.631 -2.139,4.77 -4.769,4.77 z"/>
      <path id="vl247" fill="#054b87" stroke="#054b87" d="m 376.437,92.22 c -2.632,0 -4.771,-2.14 -4.771,-4.77 0,-2.631 2.139,-4.771 4.771,-4.771 2.628,0 4.768,2.139 4.768,4.771 0,2.63 -2.138,4.77 -4.768,4.77 z"/>
      <path id="vl248" fill="#054b87" stroke="#054b87" d="m 368.587,105.908 c -2.631,0 -4.771,-2.141 -4.771,-4.771 0,-2.63 2.139,-4.77 4.771,-4.77 2.629,0 4.77,2.139 4.77,4.77 0,2.63 -2.139,4.771 -4.77,4.771 z"/>
      <path id="vl249" fill="#054b87" stroke="#054b87" d="m 401.496,73.403 c -2.63,0 -4.772,-2.141 -4.772,-4.771 0,-2.631 2.142,-4.771 4.772,-4.771 2.63,0 4.77,2.14 4.77,4.771 0,2.63 -2.14,4.771 -4.77,4.771 z"/>
      <path id="vl250" fill="#054b87" stroke="#054b87" d="m 317.111,163.249 c -2.631,0 -4.772,-2.139 -4.772,-4.768 0,-2.631 2.14,-4.771 4.772,-4.771 2.631,0 4.771,2.139 4.771,4.771 0,2.629 -2.14,4.768 -4.771,4.768 z"/>
      <path id="vl251" fill="#054b87" stroke="#054b87" d="m 360.696,119.651 c -2.631,0 -4.771,-2.141 -4.771,-4.771 0,-2.63 2.14,-4.771 4.771,-4.771 2.632,0 4.771,2.14 4.771,4.771 0,2.631 -2.139,4.771 -4.771,4.771 z"/>
      <path id="vl252" fill="#054b87" stroke="#054b87" d="m 396.323,89.877 c -2.631,0 -4.772,-2.139 -4.772,-4.77 0,-2.632 2.14,-4.771 4.772,-4.771 2.628,0 4.77,2.139 4.77,4.771 0,2.63 -2.14,4.77 -4.77,4.77 z"/>
      <path id="vl253" fill="#054b87" stroke="#054b87" d="m 352.778,133.492 c -2.63,0 -4.77,-2.142 -4.77,-4.773 0,-2.628 2.14,-4.769 4.77,-4.769 2.63,0 4.77,2.14 4.77,4.769 0,2.631 -2.14,4.773 -4.77,4.773 z"/>
      <path id="vl254" fill="#054b87" stroke="#054b87" d="m 388.322,103.745 c -2.63,0 -4.772,-2.139 -4.772,-4.771 0,-2.629 2.142,-4.77 4.772,-4.77 2.63,0 4.77,2.141 4.77,4.77 0,2.631 -2.14,4.771 -4.77,4.771 z"/>
      <path id="vl255" fill="#054b87" stroke="#054b87" d="m 412.381,84.357 c -2.631,0 -4.77,-2.14 -4.77,-4.771 0,-2.63 2.14,-4.771 4.77,-4.771 2.629,0 4.769,2.14 4.769,4.771 0,2.631 -2.138,4.771 -4.769,4.771 z"/>
      <path id="vl256" fill="#054b87" stroke="#054b87" d="m 344.777,147.414 c -2.632,0 -4.772,-2.14 -4.772,-4.771 0,-2.629 2.14,-4.77 4.772,-4.77 2.628,0 4.768,2.141 4.768,4.77 10e-4,2.63 -2.138,4.771 -4.768,4.771 z"/>
      <path id="vl257" fill="#054b87" stroke="#054b87" d="m 380.251,117.695 c -2.632,0 -4.772,-2.139 -4.772,-4.77 0,-2.631 2.14,-4.77 4.772,-4.77 2.628,0 4.768,2.139 4.768,4.77 0,2.631 -2.139,4.77 -4.768,4.77 z"/>
      <path id="vl258" fill="#054b87" stroke="#054b87" d="m 336.706,161.489 c -2.63,0 -4.77,-2.14 -4.77,-4.769 0,-2.631 2.14,-4.773 4.77,-4.773 2.629,0 4.77,2.142 4.77,4.773 0,2.63 -2.141,4.769 -4.77,4.769 z"/>
      <path id="vl259" fill="#054b87" stroke="#054b87" d="m 372.095,131.758 c -2.629,0 -4.769,-2.141 -4.769,-4.773 0,-2.628 2.14,-4.768 4.769,-4.768 2.631,0 4.771,2.14 4.771,4.768 0.001,2.632 -2.139,4.773 -4.771,4.773 z"/>
      <path id="vl260" fill="#054b87" stroke="#054b87" d="m 407.5,102.038 c -2.629,0 -4.771,-2.139 -4.771,-4.77 0,-2.631 2.142,-4.77 4.771,-4.77 2.632,0 4.771,2.139 4.771,4.77 0,2.631 -2.14,4.77 -4.771,4.77 z"/>
      <path id="vl261" fill="#054b87" stroke="#054b87" d="m 422.518,96.006 c -2.63,0 -4.77,-2.14 -4.77,-4.771 0,-2.63 2.139,-4.771 4.77,-4.771 2.631,0 4.771,2.14 4.771,4.771 0,2.631 -2.139,4.771 -4.771,4.771 z"/>
      <path id="vl262" fill="#054b87" stroke="#054b87" d="m 399.221,116.197 c -2.63,0 -4.77,-2.139 -4.77,-4.771 0,-2.63 2.14,-4.77 4.77,-4.77 2.629,0 4.768,2.14 4.768,4.77 0,2.632 -2.138,4.771 -4.768,4.771 z"/>
      <path id="vl263" fill="#054b87" stroke="#054b87" d="m 363.845,145.958 c -2.631,0 -4.772,-2.14 -4.772,-4.771 0,-2.63 2.14,-4.769 4.772,-4.769 2.628,0 4.768,2.139 4.768,4.769 0.002,2.63 -2.138,4.771 -4.768,4.771 z"/>
      <path id="vl264" fill="#054b87" stroke="#054b87" d="m 328.482,175.773 c -2.631,0 -4.77,-2.139 -4.77,-4.771 0,-2.628 2.139,-4.769 4.77,-4.769 2.629,0 4.769,2.14 4.769,4.769 0.001,2.631 -2.138,4.771 -4.769,4.771 z"/>
      <path id="vl265" fill="#054b87" stroke="#054b87" d="m 390.83,130.468 c -2.63,0 -4.77,-2.141 -4.77,-4.771 0,-2.629 2.14,-4.77 4.77,-4.77 2.63,0 4.772,2.14 4.772,4.77 0.001,2.63 -2.14,4.771 -4.772,4.771 z"/>
      <path id="vl266" fill="#054b87" stroke="#054b87" d="m 355.427,160.339 c -2.63,0 -4.77,-2.141 -4.77,-4.77 0,-2.63 2.14,-4.771 4.77,-4.771 2.63,0 4.77,2.14 4.77,4.771 0,2.629 -2.14,4.77 -4.77,4.77 z"/>
      <path id="vl267" fill="#054b87" stroke="#054b87" d="m 417.733,115.018 c -2.628,0 -4.768,-2.139 -4.768,-4.77 0,-2.631 2.14,-4.771 4.768,-4.771 2.632,0 4.772,2.139 4.772,4.771 0,2.631 -2.14,4.77 -4.772,4.77 z"/>
      <path id="vl268" fill="#054b87" stroke="#054b87" d="m 431.879,108.294 c -2.63,0 -4.77,-2.14 -4.77,-4.771 0,-2.632 2.14,-4.771 4.77,-4.771 2.631,0 4.771,2.139 4.771,4.771 0,2.63 -2.139,4.771 -4.771,4.771 z"/>
      <path id="vl269" fill="#054b87" stroke="#054b87" d="m 382.289,144.904 c -2.631,0 -4.771,-2.14 -4.771,-4.771 0,-2.629 2.139,-4.77 4.771,-4.77 2.632,0 4.771,2.14 4.771,4.77 0,2.631 -2.14,4.771 -4.771,4.771 z"/>
      <path id="vl270" fill="#054b87" stroke="#054b87" d="m 409.08,129.483 c -2.63,0 -4.77,-2.14 -4.77,-4.769 0,-2.629 2.139,-4.771 4.77,-4.771 2.63,0 4.77,2.142 4.77,4.771 10e-4,2.629 -2.139,4.769 -4.77,4.769 z"/>
      <path id="vl271" fill="#054b87" stroke="#054b87" d="m 346.801,174.94 c -2.631,0 -4.77,-2.141 -4.77,-4.77 0,-2.63 2.139,-4.77 4.77,-4.77 2.629,0 4.771,2.14 4.771,4.77 0,2.63 -2.14,4.77 -4.771,4.77 z"/>
      <path id="vl272" fill="#054b87" stroke="#054b87" d="m 373.524,159.534 c -2.631,0 -4.771,-2.14 -4.771,-4.77 0,-2.629 2.14,-4.77 4.771,-4.77 2.631,0 4.771,2.14 4.771,4.77 0,2.63 -2.14,4.77 -4.771,4.77 z"/>
      <path id="vl273" fill="#054b87" stroke="#054b87" d="m 400.247,144.128 c -2.631,0 -4.771,-2.14 -4.771,-4.77 0,-2.63 2.14,-4.771 4.771,-4.771 2.629,0 4.769,2.142 4.769,4.771 0,2.63 -2.138,4.77 -4.769,4.77 z"/>
      <path id="vl274" fill="#054b87" stroke="#054b87" d="m 426.957,128.719 c -2.63,0 -4.77,-2.139 -4.77,-4.77 0,-2.629 2.14,-4.769 4.77,-4.769 2.628,0 4.768,2.14 4.768,4.769 0,2.631 -2.139,4.77 -4.768,4.77 z"/>
      <path id="vl275" fill="#054b87" stroke="#054b87" d="m 440.393,121.162 c -2.629,0 -4.768,-2.14 -4.768,-4.771 0,-2.63 2.14,-4.77 4.768,-4.77 2.631,0 4.771,2.14 4.771,4.77 0,2.631 -2.139,4.771 -4.771,4.771 z"/>
      <path id="vl276" fill="#054b87" stroke="#054b87" d="m 417.831,143.531 c -2.63,0 -4.769,-2.14 -4.769,-4.771 0,-2.629 2.139,-4.769 4.769,-4.769 2.63,0 4.77,2.14 4.77,4.769 0,2.631 -2.14,4.771 -4.77,4.771 z"/>
      <path id="vl277" fill="#054b87" stroke="#054b87" d="m 391.163,158.965 c -2.628,0 -4.769,-2.14 -4.769,-4.77 0,-2.63 2.14,-4.771 4.769,-4.771 2.631,0 4.771,2.141 4.771,4.771 0,2.63 -2.14,4.77 -4.771,4.77 z"/>
      <path id="vl278" fill="#054b87" stroke="#054b87" d="m 364.497,174.401 c -2.631,0 -4.772,-2.142 -4.772,-4.772 0,-2.629 2.14,-4.769 4.772,-4.769 2.631,0 4.771,2.14 4.771,4.769 0,2.631 -2.141,4.772 -4.771,4.772 z"/>
      <path id="vl279" fill="#054b87" stroke="#054b87" d="m 337.83,189.876 c -2.631,0 -4.77,-2.14 -4.77,-4.771 0,-2.629 2.139,-4.769 4.77,-4.769 2.629,0 4.769,2.14 4.769,4.769 0,2.631 -2.14,4.771 -4.769,4.771 z"/>
      <path id="vl280" fill="#054b87" stroke="#054b87" d="m 448.062,134.573 c -2.63,0 -4.77,-2.14 -4.77,-4.77 0,-2.629 2.14,-4.77 4.77,-4.77 2.632,0 4.771,2.141 4.771,4.77 0,2.63 -2.139,4.77 -4.771,4.77 z"/>
      <path id="vl281" fill="#054b87" stroke="#054b87" d="m 435.125,143.073 c -2.629,0 -4.771,-2.14 -4.771,-4.772 0,-2.628 2.142,-4.767 4.771,-4.767 2.63,0 4.77,2.139 4.77,4.767 0,2.633 -2.14,4.772 -4.77,4.772 z"/>
      <path id="vl282" fill="#054b87" stroke="#054b87" d="m 408.43,158.548 c -2.63,0 -4.771,-2.138 -4.771,-4.77 0,-2.629 2.141,-4.768 4.771,-4.768 2.63,0 4.769,2.139 4.769,4.768 0,2.632 -2.139,4.77 -4.769,4.77 z"/>
      <path id="vl283" fill="#054b87" stroke="#054b87" d="m 381.734,174.054 c -2.629,0 -4.771,-2.141 -4.771,-4.772 0,-2.629 2.142,-4.768 4.771,-4.768 2.631,0 4.77,2.139 4.77,4.768 0,2.631 -2.139,4.772 -4.77,4.772 z"/>
      <path id="vl284" fill="#054b87" stroke="#054b87" d="m 355.039,189.598 c -2.629,0 -4.772,-2.139 -4.772,-4.768 0,-2.631 2.143,-4.771 4.772,-4.771 2.63,0 4.77,2.14 4.77,4.771 10e-4,2.629 -2.14,4.768 -4.77,4.768 z"/>
      <path id="vl285" fill="#054b87" stroke="#054b87" d="m 425.418,158.244 c -2.63,0 -4.771,-2.14 -4.771,-4.771 0,-2.631 2.141,-4.771 4.771,-4.771 2.63,0 4.77,2.14 4.77,4.771 0,2.632 -2.14,4.771 -4.77,4.771 z"/>
      <path id="vl286" fill="#054b87" stroke="#054b87" d="m 454.83,148.453 c -2.629,0 -4.769,-2.139 -4.769,-4.77 0,-2.629 2.14,-4.769 4.769,-4.769 2.631,0 4.77,2.14 4.77,4.769 10e-4,2.631 -2.139,4.77 -4.77,4.77 z"/>
      <path id="vl287" fill="#054b87" stroke="#054b87" d="m 398.652,173.805 c -2.63,0 -4.77,-2.142 -4.77,-4.772 0,-2.628 2.14,-4.768 4.77,-4.768 2.63,0 4.77,2.14 4.77,4.768 0,2.63 -2.14,4.772 -4.77,4.772 z"/>
      <path id="vl288" fill="#054b87" stroke="#054b87" d="m 442.197,158.009 c -2.631,0 -4.771,-2.14 -4.771,-4.771 0,-2.631 2.14,-4.77 4.771,-4.77 2.629,0 4.769,2.139 4.769,4.77 0,2.632 -2.138,4.771 -4.769,4.771 z"/>
      <path id="vl289" fill="#054b87" stroke="#054b87" d="m 371.832,189.447 c -2.63,0 -4.77,-2.14 -4.77,-4.771 0,-2.631 2.14,-4.77 4.77,-4.77 2.63,0 4.77,2.139 4.77,4.77 0.001,2.631 -2.14,4.771 -4.77,4.771 z"/>
      <path id="vl290" fill="#054b87" stroke="#054b87" d="m 415.32,173.637 c -2.63,0 -4.769,-2.14 -4.769,-4.77 0,-2.629 2.139,-4.77 4.769,-4.77 2.63,0 4.77,2.14 4.77,4.77 0.002,2.631 -2.138,4.77 -4.77,4.77 z"/>
      <path id="vl291" fill="#054b87" stroke="#054b87" d="m 344.942,205.213 c -2.63,0 -4.769,-2.14 -4.769,-4.77 0,-2.63 2.139,-4.77 4.769,-4.77 2.63,0 4.77,2.139 4.77,4.77 0,2.63 -2.138,4.77 -4.77,4.77 z"/>
      <path id="vl292" fill="#054b87" stroke="#054b87" d="m 388.362,189.349 c -2.629,0 -4.77,-2.139 -4.77,-4.77 0,-2.629 2.14,-4.77 4.77,-4.77 2.63,0 4.77,2.141 4.77,4.77 0,2.631 -2.14,4.77 -4.77,4.77 z"/>
      <path id="vl293" fill="#054b87" stroke="#054b87" d="m 460.67,162.752 c -2.631,0 -4.77,-2.14 -4.77,-4.771 0,-2.631 2.139,-4.771 4.77,-4.771 2.629,0 4.77,2.14 4.77,4.771 -10e-4,2.631 -2.141,4.771 -4.77,4.771 z"/>
      <path id="vl294" fill="#054b87" stroke="#054b87" d="m 431.796,173.513 c -2.631,0 -4.77,-2.141 -4.77,-4.769 0,-2.63 2.139,-4.77 4.77,-4.77 2.628,0 4.769,2.14 4.769,4.77 10e-4,2.628 -2.139,4.769 -4.769,4.769 z"/>
      <path id="vl295" fill="#054b87" stroke="#054b87" d="m 448.118,173.429 c -2.629,0 -4.768,-2.139 -4.768,-4.768 0,-2.629 2.14,-4.768 4.768,-4.768 2.63,0 4.77,2.139 4.77,4.768 0,2.629 -2.14,4.768 -4.77,4.768 z"/>
      <path id="vl296" fill="#054b87" stroke="#054b87" d="m 404.684,189.308 c -2.628,0 -4.768,-2.14 -4.768,-4.772 0,-2.628 2.14,-4.768 4.768,-4.768 2.632,0 4.772,2.139 4.772,4.768 -0.001,2.632 -2.141,4.772 -4.772,4.772 z"/>
      <path id="vl297" fill="#054b87" stroke="#054b87" d="m 361.265,205.229 c -2.631,0 -4.771,-2.14 -4.771,-4.772 0,-2.628 2.14,-4.768 4.771,-4.768 2.631,0 4.771,2.14 4.771,4.768 0,2.631 -2.139,4.772 -4.771,4.772 z"/>
      <path id="vl298" fill="#054b87" stroke="#054b87" d="m 420.854,189.265 c -2.629,0 -4.769,-2.14 -4.769,-4.77 0,-2.63 2.139,-4.769 4.769,-4.769 2.631,0 4.771,2.139 4.771,4.769 0,2.631 -2.14,4.77 -4.771,4.77 z"/>
      <path id="vl299" fill="#054b87" stroke="#054b87" d="m 465.55,177.395 c -2.63,0 -4.77,-2.139 -4.77,-4.771 0,-2.629 2.14,-4.768 4.77,-4.768 2.629,0 4.768,2.139 4.768,4.768 0.002,2.632 -2.137,4.771 -4.768,4.771 z"/>
    </g>
    <text xml:space="preserve" style="font-size:29.9912px;line-height:1.25;font-family:sans-serif;word-spacing:0px;stroke-width:0.749782" x="151.86171" y="169.21289" id="text946"><tspan sodipodi:role="line" id="tspan944" x="151.86171" y="169.21289" style="stroke-width:0.749782"/></text>
  </g>
</svg>