<svg xmlns="http://www.w3.org/2000/svg" viewBox="0 0 217.3 266.9"><path fill="#08A5C3" d="M3.9 113V45.4l42 67.6s-41.9-.1-42 0M53.1 113V45.4L95 113s-41.8-.1-41.9 0M53.1 38V.1L76.6 38s-23.5-.1-23.5 0M102.3 38V.1L125.8 38s-23.5-.1-23.5 0M102.3 113V45.4l42 67.6s-41.9-.1-42 0M153.4 113V0l61.2 113s-61-.1-61.2 0"/><path fill="#AC3288" d="M3.9 121.9l49.7 32.2 129.8-32.2zM23.6 198.3h-7.2v-19H8.9v19H1.6v-24.4h22v24.4zM42.9 198.3l-5-11.1h-.1l-5.2 11.1h-7.2l12.2-25h.8l11.9 25h-7.4zM69.7 192.8v5.5H52v-24.4h17.2v5.4h-10v3.8h8.7v5.2h-8.7v4.5h10.5zM82.6 183.3h.1c.3-.9.9-2.3 1.6-4.2l2.1-5.2h7.8l-8.1 15.4v9h-7.3v-9l-8.2-15.4h7.8l4.2 9.4zM110.1 185.5l-4.2 7.3h10.9v5.5H95v-.7l6.9-12-6.6-11.2v-.6H116v5.4h-9.8l3.9 6.3zM140.7 198.3h-7.4v-9.9H126v9.9h-7.3v-24.4h7.3v9.1h7.3v-9.1h7.3l.1 24.4zM19.4 230.7v5.5H1.6v-24.4h17.3v5.4h-10v3.8h8.7v5.3H8.9v4.5l10.5-.1zM38.3 236.1l-5-11.1h-.2l-5.2 11.1h-7.2l12.2-25h.8l11.9 25h-7.3zM65.1 230.7v5.5H47.3v-24.4h17.3v5.4h-10v3.8h8.8v5.3h-8.7v4.5l10.4-.1zM78 221.1h.1c.3-.9.9-2.3 1.6-4.2l2.1-5.2h7.8l-8.1 15.5v9h-7.2v-9l-8.2-15.4H74l4 9.3zM92.5 233c-2.5-2.4-3.8-5.7-3.7-9.1-.1-3.4 1.3-6.7 3.8-9 5.5-4.9 13.8-4.9 19.4 0 2.5 2.4 3.8 5.7 3.8 9.1.1 3.4-1.3 6.7-3.8 9.1-5.7 4.7-14 4.7-19.5-.1zm5.3-14c-1.2 1.3-1.8 3.1-1.7 4.9-.1 1.8.6 3.6 1.7 5 1.1 1.3 2.8 2 4.5 2 1.7.1 3.4-.7 4.5-2 1.2-1.4 1.8-3.2 1.7-5 .1-1.8-.5-3.5-1.7-4.9-1.1-1.3-2.8-2.1-4.5-2-1.7 0-3.4.7-4.5 2zm.3 7v-4.4h8.3v4.4h-8.3zM135.9 230.7v5.5h-17.8v-24.4h17.2v5.4h-10v3.8h8.7v5.3h-8.7v4.5l10.6-.1zM138.6 236.1v-24.4h10.1c3.1 0 5.5.8 7.1 2.5 1.6 1.5 2.5 3.6 2.5 5.9.1 2.2-.9 4.4-2.5 5.9-1.8 1.7-4.2 2.5-6.7 2.4h-3.2v7.8h-7.3zm7.3-19.1v6.1h1.1c2.8 0 4.2-1 4.2-3 0-1.8-1.2-3.1-3.4-3.1h-1.9zM167.5 236.1h-7.3v-24.4h7.3v24.4zM187 236.1l-1.2-2.8h-8.5l-1.2 2.8h-7l12.2-25h.9l11.9 25H187zm-5.4-12.3l-2.1 4.9h4.4l-2.1-4.9h-.2zM210.1 223.4l-4.2 7.3h10.9v5.4H195v-.7l6.9-12-6.6-11.1v-.6H216v5.4h-9.8l3.9 6.3z"/><path fill="#08A5C3" d="M10 255.3v.3l-5 8.5h4.7v2.5H0v-.3l5-8.5H.7v-2.5H10zM15.3 258.8c-.5.7-.8 1.6-.7 2.5 0 1 .2 1.9.5 2.8.3.8.7 1.5 1.4 2.1v.4h-5.6V264h1.5v-.1c-.7-1-1.1-2.3-1.1-3.5 0-1.5.6-2.9 1.7-3.9 2.6-2.1 6.3-2.1 8.8 0 1.1 1 1.7 2.4 1.7 3.9 0 1.3-.4 2.6-1.2 3.7v.1h1.5v2.5h-5.5v-.4c.7-.5 1.2-1.3 1.4-2.1.3-.9.5-1.9.5-2.8 0-.9-.2-1.8-.7-2.5-.9-1.2-2.6-1.3-3.8-.4-.1.1-.2.2-.4.3zM35.6 266.7h-3.4v-4.5h-3.4v4.6h-3.4v-11.4h3.4v4.2h3.4v-4.2h3.4v11.3zM45.2 255.3v5.1l3.4-5.1h3.6l-3.8 5.5 4 5.9h-3.7l-3.4-5.6v5.5h-3.4v-11.3h3.3zM57.7 258.8c-.5.7-.8 1.6-.7 2.5 0 1 .2 1.9.5 2.8.3.8.7 1.5 1.4 2.1v.4h-5.5V264h1.5v-.1c-.7-1-1.1-2.3-1.1-3.5 0-1.5.6-2.9 1.7-3.9 2.6-2.1 6.2-2.1 8.8 0 1.1 1 1.7 2.4 1.7 3.9 0 1.3-.4 2.6-1.1 3.6v.1h1.5v2.5h-5.6v-.4c.7-.5 1.2-1.3 1.4-2.1.4-.9.5-1.9.5-2.8 0-.9-.2-1.8-.7-2.5-.9-1.2-2.6-1.3-3.8-.4-.2.1-.4.3-.5.4zM71.2 266.7h-3.4V255h.4l6.6 5.6h.1v-5.3h3.4v11.6h-.4l-6.6-5.8h-.1v5.6zM86.5 260.8l-1.9 3.4h5.1v2.5H79.5v-.3l3.2-5.6-3.1-5.2v-.3h9.7v2.5h-4.6l1.8 3zM99.9 257.8h-3.1v8.8h-3.4v-8.8h-3v-2.6h9.6l-.1 2.6zM107.4 266.7l-.6-1.3h-3.9l-.6 1.3h-3.2l5.7-11.6h.4l5.6 11.6h-3.4zm-2.5-5.7l-1 2.3h2l-1-2.3zM115.3 266.7H112V255h.4l6.6 5.6h.1v-5.3h3.4v11.6h-.5l-6.6-5.8v5.6zM133.2 257.8h-3.1v8.8h-3.4v-8.8h-3.1v-2.6h9.6v2.6zM135.6 265.2c-2.3-2.3-2.3-6.1.1-8.4a5.8 5.8 0 0 1 4.5-1.7c1.7-.1 3.3.5 4.5 1.7 2.3 2.3 2.3 6.1 0 8.4-2.6 2.2-6.5 2.2-9.1 0zm2.5-6.5c-.5.6-.8 1.4-.8 2.2 0 .8.2 1.7.8 2.3.5.6 1.3.9 2.1.9s1.6-.3 2.1-.9c.5-.6.8-1.5.8-2.3 0-.8-.3-1.6-.8-2.2-.5-.6-1.3-.9-2.1-.9s-1.6.3-2.1.9zM158.2 266.7h-3.4v-8.8h-3.5v8.8H148v-11.3h10.2v11.3zM161.5 265.2c-2.3-2.3-2.3-6.1.1-8.4a5.8 5.8 0 0 1 4.5-1.7c1.7-.1 3.3.6 4.5 1.7 2.3 2.3 2.3 6.1 0 8.4-2.7 2.2-6.5 2.2-9.1 0zm2.5-6.5c-.5.6-.8 1.4-.8 2.2 0 .8.2 1.7.8 2.3.5.6 1.3.9 2.1.9s1.6-.3 2.1-.9c.5-.6.8-1.5.8-2.3 0-.8-.3-1.6-.8-2.2-.5-.6-1.3-.9-2.1-.9s-1.6.3-2.1.9zM177.8 259.7c.2-.4.5-1.1.8-2l1-2.4h3.6l-3.8 7.2v4.2H176v-4.2l-3.8-7.1h3.6l2 4.3zM190.3 266.7l-2.3-5.1h-.1l-2.4 5.1h-3.4l5.7-11.6h.4l5.5 11.6h-3.4zM195.6 265.2c-2.3-2.3-2.3-6.1 0-8.4a5.8 5.8 0 0 1 4.5-1.7c1.7-.1 3.3.5 4.5 1.7 2.3 2.3 2.3 6.1 0 8.4-2.6 2.2-6.5 2.2-9 0zm2.5-6.5c-.5.6-.8 1.4-.8 2.2 0 .8.2 1.7.8 2.3.5.6 1.3.9 2.1.9s1.6-.3 2.1-.9c1.1-1.3 1.1-3.2 0-4.5-.5-.6-1.3-.9-2.1-.9-.9 0-1.6.3-2.1.9zM211.9 259.7c.2-.4.5-1.1.8-2l1-2.4h3.6l-3.8 7.2v4.2h-3.4v-4.2l-3.8-7.2h3.6l2 4.4z"/></svg>